<?xml version="1.0" encoding="UTF-8"?>
<svg version="1.1" xmlns="http://www.w3.org/2000/svg" width="1000" height="1000">
<path d="M0 0 C0.84018677 0.19418518 1.68037354 0.38837036 2.54602051 0.58843994 C38.72482964 8.95483999 74.74114756 18.0870371 108 35 C108.64775391 35.31743164 109.29550781 35.63486328 109.96289062 35.96191406 C119.9397276 40.88314846 130.84915356 49.34960753 135 60 C134.67 60.99 134.34 61.98 134 63 C127.25997725 63.44196871 122.60319462 62.40904388 116.3828125 59.77734375 C113.89523963 58.70444117 113.89523963 58.70444117 111 60 C110.0406843 62.19514873 110.0406843 62.19514873 110 65 C112.756652 69.77112847 116.28624117 71.8686495 121 74.625 C134.30958103 82.4089152 147.41072449 94.96197825 154 109 C154 110.32 154 111.64 154 113 C150.50470706 111.88786134 147.25530808 110.68426809 144 109 C145.57970345 111.08617326 147.16358284 113.16894154 148.75 115.25 C149.1934375 115.83652344 149.636875 116.42304688 150.09375 117.02734375 C153.7311635 121.8007974 153.7311635 121.8007974 158 126 C160.74426716 125.80398092 162.55210492 125.22394754 165 124 C167.51830417 123.87705594 170.00793165 123.81166446 172.52734375 123.796875 C173.27206436 123.79117493 174.01678497 123.78547485 174.78407288 123.77960205 C176.36018451 123.77015209 177.93631591 123.76361808 179.51245117 123.75976562 C181.92466603 123.75005168 184.33603177 123.71902639 186.74804688 123.6875 C188.27864077 123.68097068 189.80924076 123.67571993 191.33984375 123.671875 C192.42276955 123.6533548 192.42276955 123.6533548 193.52757263 123.63446045 C196.43413825 123.64740197 198.4969845 123.66845142 200.96313477 125.29394531 C202.67560861 128.11164422 202.23684325 130.80261608 202 134 C199.92936717 136.07063283 195.5565796 135.32484584 192.6875 135.4375 C185.33824578 135.77594288 178.22335807 136.54116494 171 138 C170.27922456 140.11631938 169.56906642 142.23540075 168.87109375 144.359375 C168.29551734 146.10417165 167.704603 147.84399144 167.09765625 149.578125 C165.36753224 154.77646996 164.35997402 158.59756149 166 164 C167.37575718 166.4780989 168.86274734 168.86751448 170.3671875 171.26953125 C175.42667318 179.73025012 178.67649742 188.03163698 177 198 C175.19196596 201.07365786 174.13960536 202.43019732 171 204 C167.6875 204.4375 167.6875 204.4375 164 204 C159.37795712 199.8079146 157.3149201 194.70697178 155 189 C151.62193599 197.07720817 151.64573544 204.38646671 151.8125 213.0625 C151.82758044 214.41860486 151.84126288 215.77472602 151.85351562 217.13085938 C151.88864164 220.42099602 151.9378336 223.71028183 152 227 C152.99 226.67 153.98 226.34 155 226 C157.39490986 225.93029948 159.79167691 225.91551997 162.1875 225.9375 C163.45980469 225.94652344 164.73210937 225.95554687 166.04296875 225.96484375 C167.50669922 225.98224609 167.50669922 225.98224609 169 226 C172.79586039 233.3191457 172.79586039 233.3191457 172 237 C167.92104958 240.26004068 164.20488298 240.37475161 159.1875 240.1875 C158.49462891 240.17396484 157.80175781 240.16042969 157.08789062 240.14648438 C155.39158735 240.11138845 153.69568864 240.05758943 152 240 C151.34 242.31 150.68 244.62 150 247 C149.01 247 148.02 247 147 247 C146.67 244.69 146.34 242.38 146 240 C142.7 240.33 139.4 240.66 136 241 C135.67 241.99 135.34 242.98 135 244 C132.23983999 243.49815273 129.66634501 242.88878167 127 242 C122.45729642 240.62918416 117.80052575 240.61498373 113.0859375 240.44140625 C109.68450017 239.95487154 107.75328319 239.02271887 105 237 C104 235 104 235 104 233 C105.59012465 230.24378395 107.36114792 229.87961736 110.375 228.875 C116.15918162 227.57518391 122.09676992 227.3419554 128 227 C129.06893691 224.11351193 130.10010157 221.21488703 131.125 218.3125 C131.57939453 217.08756836 131.57939453 217.08756836 132.04296875 215.83789062 C133.7389889 211.04086489 133.7389889 211.04086489 133.3984375 206.0546875 C131.0193304 202.55912791 127.91987886 201.36343613 124 200 C122.37861876 199.74649414 120.75316885 199.51794717 119.125 199.3125 C112.47384132 198.20226022 108.54268041 193.6760435 104 189 C103.00119528 187.99880615 102.00142985 186.99856811 101 186 C99.84209951 195.88150029 98.9709133 205.72296623 98.75 215.671875 C98.72419106 216.78702232 98.72419106 216.78702232 98.69786072 217.92469788 C98.61551004 221.66721374 98.5546528 225.40886709 98.51782227 229.15209961 C98.49272274 230.54281276 98.46726696 231.93351954 98.44140625 233.32421875 C98.42795166 234.56260498 98.41449707 235.80099121 98.40063477 237.0769043 C98.26842529 238.04152588 98.13621582 239.00614746 98 240 C95 242 95 242 92.125 241.875 C88.43121519 240.84074025 86.67702711 239.74889361 84 237 C83.4765625 233.8046875 83.4765625 233.8046875 83.625 229.875 C83.64498047 229.16158447 83.66496094 228.44816895 83.68554688 227.71313477 C83.76492398 225.14061919 83.88399628 222.57112072 84 220 C84.0827569 217.69929079 84.16335897 215.3985034 84.2421875 213.09765625 C84.46689022 206.73050087 84.72398962 200.36512239 85 194 C80.96036856 194.52466713 76.9219792 195.05797392 72.88452148 195.59912109 C71.51243616 195.78180713 70.14004045 195.96217811 68.76733398 196.14013672 C66.78808798 196.39714436 64.81003965 196.66332228 62.83203125 196.9296875 C61.64327393 197.08679199 60.4545166 197.24389648 59.22973633 197.40576172 C54.40467447 198.2935235 51.80008271 198.87809632 48.90234375 202.94140625 C48.23228331 204.14011398 47.57767898 205.34757116 46.9375 206.5625 C46.44926758 207.43745117 46.44926758 207.43745117 45.95117188 208.33007812 C44.15667982 211.60280521 42.5665702 214.92712059 41.07421875 218.34765625 C38.90320139 223.31520243 36.41855953 228.08978712 33.875 232.875 C33.21177734 234.13570313 33.21177734 234.13570313 32.53515625 235.421875 C30.79166478 238.71923349 29.07134896 241.89297655 27 245 C23.10476671 244.4229284 20.72938257 242.80519876 18 240 C17.13466175 234.27846717 19.48433558 230.26506249 22.05078125 225.34765625 C22.46539108 224.52929794 22.88000092 223.71093964 23.30717468 222.86778259 C24.63104385 220.26011161 25.97111917 217.66119954 27.3125 215.0625 C28.63970586 212.46572996 29.96350862 209.86726047 31.28569031 207.26792908 C32.10787591 205.65436914 32.93354268 204.04257662 33.76325989 202.43287659 C35.51066211 199.02743386 37.18001087 195.64236692 38.63012695 192.09887695 C40.21223686 188.51988551 42.24484628 186.75515372 45 184 C46.89105733 181.05524848 48.49939189 177.9723901 50.125 174.875 C51.07994648 173.09263146 52.03703935 171.31141152 52.99609375 169.53125 C53.48577637 168.62117187 53.97545898 167.71109375 54.47998047 166.7734375 C57.41459375 161.41892306 60.52936323 156.16703826 63.64697266 150.91748047 C64.08702637 150.16869629 64.52708008 149.41991211 64.98046875 148.6484375 C65.37129639 147.99020996 65.76212402 147.33198242 66.16479492 146.65380859 C67.15026474 145.01124759 67.15026474 145.01124759 67 143 C59.50381952 138.82127812 52.61062451 136.10057458 43.94921875 135.9453125 C36.00311397 135.76719309 36.00311397 135.76719309 32.82421875 133.3359375 C31.04673362 131.30343844 29.49795522 129.24481108 28 127 C24.4304942 122.13249209 21.2457699 119.65103278 15.21630859 118.44165039 C11.92965399 117.99034037 8.72934748 117.79175772 5.4140625 117.68359375 C4.16117432 117.64137695 2.90828613 117.59916016 1.61743164 117.55566406 C0.2999292 117.51666992 -1.01757324 117.47767578 -2.375 117.4375 C-3.04951202 117.41731812 -3.72402405 117.39713623 -4.41897583 117.37634277 C-7.76601238 117.27698548 -11.11310162 117.18372944 -14.46044922 117.09521484 C-17.30884398 117.01859228 -20.15612799 116.92774977 -23.00390625 116.83203125 C-38.84690276 116.50164105 -51.31769228 120.72454951 -65.81494141 126.59350586 C-78.65678126 131.76168774 -91.74983243 135.99792541 -105 140 C-105.96405762 140.29197266 -106.92811523 140.58394531 -107.92138672 140.88476562 C-110.46430787 141.64677811 -113.01111333 142.39189137 -115.5625 143.125 C-116.28840332 143.33753418 -117.01430664 143.55006836 -117.76220703 143.76904297 C-121.06758409 144.68391688 -122.66965391 145.11011536 -126 144 C-117.92312077 138.74618724 -109.67446119 133.84626538 -101.3125 129.0625 C-100.10989181 128.37197852 -98.90741714 127.68122443 -97.70507812 126.99023438 C-94.80468195 125.32454501 -91.90298036 123.66118013 -89 122 C-94.81977226 122 -100.39204339 124.60216928 -105.875 126.4375 C-106.54861572 126.66208893 -107.22223145 126.88667786 -107.91625977 127.11807251 C-119.89611918 131.12897642 -131.53935892 135.6680302 -143 141 C-143.97960693 141.44956055 -143.97960693 141.44956055 -144.97900391 141.90820312 C-158.23879941 148.04369743 -170.73233653 155.59333611 -181.765625 165.1875 C-183.79618778 166.8346698 -185.67398071 167.85488281 -188 169 C-189.22527948 170.95021083 -189.22527948 170.95021083 -190 173 C-190.33 173.66 -190.66 174.32 -191 175 C-189.783125 175.37125 -188.56625 175.7425 -187.3125 176.125 C-182.18104863 178.02654847 -179.45981263 181.08037473 -177 186 C-176.3510375 194.10671184 -176.06608813 201.27061133 -181 208 C-181.49757813 208.68707031 -181.99515625 209.37414062 -182.5078125 210.08203125 C-188.76854442 217.92978592 -197.57876945 221.95595619 -207 225 C-207.99 225 -208.98 225 -210 225 C-214.06026282 257.74552425 -214.06026282 257.74552425 -209 290 C-206.03 290 -203.06 290 -200 290 C-199.16260219 292.1234016 -198.33019717 294.2487728 -197.5 296.375 C-197.0359375 297.55835938 -196.571875 298.74171875 -196.09375 299.9609375 C-195 303 -195 303 -195 305 C-194.34 305 -193.68 305 -193 305 C-192.70996094 304.00419922 -192.70996094 304.00419922 -192.4140625 302.98828125 C-189.82776801 294.21792619 -189.82776801 294.21792619 -188 290 C-185.36 290 -182.72 290 -180 290 C-180 299.57 -180 309.14 -180 319 C-181.98 319 -183.96 319 -186 319 C-186.33 314.71 -186.66 310.42 -187 306 C-188.65 309.3 -190.3 312.6 -192 316 C-193.65 316 -195.3 316 -197 316 C-198.65 312.04 -200.3 308.08 -202 304 C-203.74132508 323.15457583 -188.25714375 342.72746681 -176.6171875 356.890625 C-175.74715668 357.92906938 -174.87487435 358.96563292 -174 360 C-173.23945313 360.90234375 -172.47890625 361.8046875 -171.6953125 362.734375 C-141.84564563 396.93933134 -95.82786509 417.33026726 -51 421 C-45.52447152 421.29601558 -40.04923065 421.33050283 -34.56689453 421.31567383 C-32.13398411 421.31251168 -29.702293 421.33609404 -27.26953125 421.36132812 C-13.55200358 421.41706827 -0.33019038 419.70709481 12.8125 415.625 C13.44607422 415.44195313 14.07964844 415.25890625 14.73242188 415.0703125 C25.75969226 411.75449628 35.43096233 406.82331159 45.0625 400.5625 C66.13402708 387 66.13402708 387 70 387 C68.47940093 390.88014936 66.13921469 392.73906562 62.875 395.25 C61.50988281 396.30960938 61.50988281 396.30960938 60.1171875 397.390625 C59.41851563 397.92171875 58.71984375 398.4528125 58 399 C59.32 399.33 60.64 399.66 62 400 C61.24976563 400.67804688 60.49953125 401.35609375 59.7265625 402.0546875 C58.69225203 402.99428961 57.65843508 403.93443516 56.625 404.875 C55.80841919 405.6167749 55.80841919 405.6167749 54.9753418 406.37353516 C51.4567475 409.59408261 48.11069818 412.92617544 44.8125 416.375 C41.09478531 420.17091904 37.532073 422.73825097 32.71484375 424.96484375 C30.65435906 425.95566017 30.65435906 425.95566017 30 429 C14.38933379 438.36639973 -6.13906538 442.08977038 -24.1015625 442.203125 C-24.85175156 442.21022995 -25.60194061 442.2173349 -26.37486267 442.22465515 C-75.30993272 442.58227859 -117.68741795 429.08538108 -161 407 C-161.91894043 406.53480957 -162.83788086 406.06961914 -163.78466797 405.59033203 C-175.44369694 399.62496786 -186.24355195 392.3394053 -197.05419922 384.97900391 C-197.90865883 384.39906929 -197.90865883 384.39906929 -198.78038025 383.80741882 C-200.344714 382.74401262 -201.90573619 381.67573965 -203.46655273 380.60717773 C-205.97066942 378.87579519 -205.97066942 378.87579519 -209 378 C-190.86208146 404.24293203 -169.69292531 424.88935725 -142 441 C-141.35691895 441.3810791 -140.71383789 441.7621582 -140.05126953 442.15478516 C-115.09458321 456.79446093 -85.55737478 464.87556143 -56.8125 467.125 C-55.24145508 467.25455078 -55.24145508 467.25455078 -53.63867188 467.38671875 C-51.0927988 467.59596859 -48.5466389 467.80032656 -46 468 C-46 468.33 -46 468.66 -46 469 C-47.98 469.33 -49.96 469.66 -52 470 C-52 471.32 -52 472.64 -52 474 C-72.35540438 484.17770219 -111.50130333 466.50353742 -131.14575195 460.01513672 C-135.10328317 458.69426709 -139.05320256 457.35260037 -143 456 C-142.08896311 457.44143508 -141.16765938 458.87638388 -140.2421875 460.30859375 C-139.73026855 461.10837646 -139.21834961 461.90815918 -138.69091797 462.73217773 C-136.22920138 466.03377828 -133.48211566 467.84108829 -130 470 C-130.66 470.33 -131.32 470.66 -132 471 C-134.39160156 470.13891602 -134.39160156 470.13891602 -137.390625 468.75390625 C-138.48544189 468.25068848 -139.58025879 467.7474707 -140.70825195 467.22900391 C-141.87702881 466.67905762 -143.04580566 466.12911133 -144.25 465.5625 C-145.44133545 465.00481934 -146.6326709 464.44713867 -147.86010742 463.87255859 C-175.02660174 451.03264552 -199.45636859 433.90180036 -221 413 C-221.7724707 412.25476074 -222.54494141 411.50952148 -223.34082031 410.74169922 C-233.33845547 401.06110116 -242.95223961 391.3833667 -251 380 C-251.42039551 379.40799805 -251.84079102 378.81599609 -252.27392578 378.20605469 C-263.21284165 362.64279169 -273.96138999 345.11583002 -280 327 C-280 334.26 -280 341.52 -280 349 C-299.1198391 323.5068812 -303.21002082 280.18629206 -303.1875 249.375 C-303.18814453 248.42294678 -303.18878906 247.47089355 -303.18945312 246.48999023 C-303.10304905 234.29228798 -302.0550643 222.14586651 -301 210 C-303.53405438 213.60212689 -305.46126299 216.79187915 -306.75 221 C-308.40193134 225.79784044 -310.53805232 230.05812211 -313.0625 234.4375 C-313.40313477 235.02853516 -313.74376953 235.61957031 -314.09472656 236.22851562 C-315.89852086 239.29514157 -317.79649958 242.20615367 -320 245 C-322.9719385 243.87548273 -325.33440687 242.77706209 -328 241 C-328.6825841 235.4852611 -327.29354242 231.73143685 -324.6875 227 C-323.9571815 225.60935887 -323.22948087 224.2173409 -322.50390625 222.82421875 C-322.10574707 222.06544434 -321.70758789 221.30666992 -321.29736328 220.52490234 C-318.80338975 215.67118117 -316.47313669 210.73795462 -314.125 205.8125 C-313.64893311 204.82056641 -313.17286621 203.82863281 -312.68237305 202.80664062 C-312.23289307 201.86626953 -311.78341309 200.92589844 -311.3203125 199.95703125 C-310.92086426 199.12147705 -310.52141602 198.28592285 -310.10986328 197.42504883 C-308.96186187 195.00200762 -308.96186187 195.00200762 -308.06152344 192.42285156 C-306.92227444 189.82259694 -305.6606599 188.30736587 -303.6953125 186.27734375 C-299.88178949 182.06587931 -297.38652163 177.63053794 -294.875 172.5625 C-294.06094685 170.95910138 -293.24584505 169.35623472 -292.4296875 167.75390625 C-292.02886963 166.95944092 -291.62805176 166.16497559 -291.21508789 165.34643555 C-290.04645728 163.08971287 -288.81186815 160.88577751 -287.55078125 158.6796875 C-284.4434917 153.13984448 -281.91394363 147.35201238 -279.3125 141.5625 C-251.85454088 81.4310089 -203.51271556 37.56455017 -141.625 14.40234375 C-96.25075299 -2.18809815 -47.62814082 -11.15673597 0 0 Z M130 118 C132.37525034 123.12864999 135.36240529 127.67888378 140 131 C143.97592659 131.24433068 147.24761594 130.22274996 151 129 C152.66257949 128.64684518 154.32832404 128.30722693 156 128 C152.5792779 125.10754131 148.81145417 123.50169352 144.6875 121.875 C143.7294043 121.47861328 143.7294043 121.47861328 142.75195312 121.07421875 C138.48620283 119.37137618 134.56842535 118.48461951 130 118 Z M149 141 C150.98 143.97 150.98 143.97 153 147 C155.2773501 144.18490007 155.2773501 144.18490007 155 141 C153.02 141 151.04 141 149 141 Z M78 152 C76.66161267 154.45570175 75.32913768 156.91429916 74 159.375 C73.6184375 160.07367188 73.236875 160.77234375 72.84375 161.4921875 C70.74275256 165.0428946 70.74275256 165.0428946 70 169 C69.34 169 68.68 169 68 169 C66.66141476 171.28874173 65.32898986 173.58069656 64 175.875 C63.6184375 176.52597656 63.236875 177.17695313 62.84375 177.84765625 C60.72448844 181.20350201 60.72448844 181.20350201 60 185 C64.00606942 184.4354265 68.01068208 183.86151547 72.01464844 183.28222656 C73.93804803 183.00880675 75.86354187 182.75024697 77.7890625 182.4921875 C78.95179688 182.32976562 80.11453125 182.16734375 81.3125 182 C82.91544922 181.7834375 82.91544922 181.7834375 84.55078125 181.5625 C85.35902344 181.376875 86.16726563 181.19125 87 181 C89.61107526 175.77784948 89.66752935 167.77448017 89 162 C86.58663045 156.95765729 82.99420105 154.29223862 78 152 Z M-199.02734375 189.515625 C-201.64146576 192.80786579 -202.60457149 196.06070417 -203.75 200.0625 C-203.97042969 200.78244141 -204.19085938 201.50238281 -204.41796875 202.24414062 C-205.31777505 205.2537412 -206 207.84323992 -206 211 C-200.08187733 209.6684224 -196.07073254 206.34578204 -192 202 C-190.12120329 199.02874003 -189.74899854 196.80508024 -189.8125 193.3125 C-189.81894531 192.52488281 -189.82539063 191.73726562 -189.83203125 190.92578125 C-189.79266331 188.99300636 -189.79266331 188.99300636 -191 188 C-194.36108917 187.62654565 -196.26552356 187.45091164 -199.02734375 189.515625 Z M-300 206 C-299 208 -299 208 -299 208 Z " fill="#F5C3A6" transform="translate(562,265)"/>
<path d="M0 0 C5.44979475 1.59735363 8.44336932 4.29005397 11.625 9.0625 C11.83974672 12.12405103 11.92562165 15.06738411 11.8984375 18.12890625 C11.89363373 19.05522354 11.88882996 19.98154083 11.88388062 20.93592834 C11.73591576 31.53090394 10.68260685 42.02863766 9.60165405 52.56195068 C7.23422726 75.70779528 5.54596062 98.81633235 4.625 122.0625 C-1.62257008 122.54308231 -1.62257008 122.54308231 -4.79956055 120.51391602 C-6.97729741 117.12531291 -6.75717059 114.84506312 -6.58203125 110.83984375 C-6.55654709 110.13912247 -6.53106293 109.43840118 -6.50480652 108.71644592 C-6.41833032 106.47635016 -6.30304447 104.23876459 -6.1875 102 C-6.12772731 100.52155723 -6.06976692 99.04304 -6.01367188 97.56445312 C-5.6972481 89.70971761 -5.19629969 81.88224304 -4.375 74.0625 C-6.97966543 74.37122329 -9.58367691 74.68431723 -12.1875 75 C-12.92548828 75.08701172 -13.66347656 75.17402344 -14.42382812 75.26367188 C-17.54233121 75.64466546 -20.38608122 76.06619374 -23.375 77.0625 C-30.7788144 77.719737 -30.7788144 77.719737 -33.48242188 77.87304688 C-37.46773077 78.25347951 -39.06803275 78.70127087 -41.6953125 81.79296875 C-42.24960937 82.87191406 -42.80390625 83.95085937 -43.375 85.0625 C-43.87902344 85.98289062 -44.38304687 86.90328125 -44.90234375 87.8515625 C-47.37355512 92.82136708 -49.70128808 97.77778109 -51.75 102.9375 C-55.18995342 111.40335938 -59.70172453 119.87400188 -65.375 127.0625 C-68.3469385 125.93798273 -70.70940687 124.83956209 -73.375 123.0625 C-74.0575841 117.5477611 -72.66854242 113.79393685 -70.0625 109.0625 C-69.3321815 107.67185887 -68.60448087 106.2798409 -67.87890625 104.88671875 C-67.48074707 104.12794434 -67.08258789 103.36916992 -66.67236328 102.58740234 C-64.17838975 97.73368117 -61.84813669 92.80045462 -59.5 87.875 C-59.02393311 86.88306641 -58.54786621 85.89113281 -58.05737305 84.86914062 C-57.60789307 83.92876953 -57.15841309 82.98839844 -56.6953125 82.01953125 C-56.09614014 80.76619995 -56.09614014 80.76619995 -55.48486328 79.48754883 C-54.33677649 77.0643617 -54.33677649 77.0643617 -53.4362793 74.484375 C-52.29786657 71.88647893 -51.04046767 70.38074613 -49.07421875 68.35546875 C-45.19811258 64.07779758 -42.715742 59.53326508 -40.1875 54.375 C-37.61148466 49.19475007 -35.20898109 44.44968077 -31.375 40.0625 C-28.09721292 36.20099742 -25.6840594 32.13925115 -23.3125 27.6875 C-20.08096334 21.78052285 -16.55805982 16.23278613 -12.5625 10.8125 C-11.87885376 9.8836499 -11.87885376 9.8836499 -11.18139648 8.93603516 C-4.52817339 0.08385506 -4.52817339 0.08385506 0 0 Z " fill="#050403" transform="translate(307.375,382.9375)"/>
<path d="M0 0 C5.65853038 0 8.50850864 1.776628 12.51953125 5.4296875 C17.01661873 10.1996853 16.29574505 14.80387715 16.19091797 20.96728516 C15.87482335 31.06225542 14.91822937 41.12733623 14.0625 51.1875 C13.87764723 53.41336105 13.69339892 55.63927239 13.50976562 57.86523438 C12.15757471 74.21456959 12.15757471 74.21456959 11.66113281 79.83959961 C11.1628536 85.70259371 10.90456093 91.53729205 10.7890625 97.41796875 C10.77461594 98.13629379 10.76016937 98.85461884 10.74528503 99.5947113 C10.68812728 102.55113057 10.63287762 105.50732588 10.59863281 108.46411133 C10.57120028 110.65753189 10.52545493 112.84993607 10.4765625 115.04296875 C10.45674316 116.33227295 10.43692383 117.62157715 10.41650391 118.94995117 C10.27905762 119.95646729 10.14161133 120.9629834 10 122 C7 124 7 124 4.125 123.875 C0.43121519 122.84074025 -1.32297289 121.74889361 -4 119 C-4.5234375 115.8046875 -4.5234375 115.8046875 -4.375 111.875 C-4.35501953 111.16158447 -4.33503906 110.44816895 -4.31445312 109.71313477 C-4.23507602 107.14061919 -4.11600372 104.57112072 -4 102 C-3.9172431 99.69929079 -3.83664103 97.3985034 -3.7578125 95.09765625 C-3.53310978 88.73050087 -3.27601038 82.36512239 -3 76 C-7.03963144 76.52466713 -11.0780208 77.05797392 -15.11547852 77.59912109 C-16.48756384 77.78180713 -17.85995955 77.96217811 -19.23266602 78.14013672 C-21.21191202 78.39714436 -23.18996035 78.66332228 -25.16796875 78.9296875 C-26.35672607 79.08679199 -27.5454834 79.24389648 -28.77026367 79.40576172 C-33.59532553 80.2935235 -36.19991729 80.87809632 -39.09765625 84.94140625 C-39.76771669 86.14011398 -40.42232102 87.34757116 -41.0625 88.5625 C-41.38798828 89.14580078 -41.71347656 89.72910156 -42.04882812 90.33007812 C-43.84332018 93.60280521 -45.4334298 96.92712059 -46.92578125 100.34765625 C-49.09679861 105.31520243 -51.58144047 110.08978712 -54.125 114.875 C-54.78822266 116.13570312 -54.78822266 116.13570312 -55.46484375 117.421875 C-57.20833522 120.71923349 -58.92865104 123.89297655 -61 127 C-64.89523329 126.4229284 -67.27061743 124.80519876 -70 122 C-70.86533825 116.27846717 -68.51566442 112.26506249 -65.94921875 107.34765625 C-65.53460892 106.52929794 -65.11999908 105.71093964 -64.69282532 104.86778259 C-63.36895615 102.26011161 -62.02888083 99.66119954 -60.6875 97.0625 C-59.36029414 94.46572996 -58.03649138 91.86726047 -56.71430969 89.26792908 C-55.89212409 87.65436914 -55.06645732 86.04257662 -54.23674011 84.43287659 C-52.48942015 81.02759417 -50.8201337 77.64270109 -49.37011719 74.09936523 C-47.78808592 70.52062559 -45.75667328 68.75257718 -43 66 C-41.12905915 63.09734995 -39.54238009 60.05595299 -37.9375 57 C-36.98347283 55.2230435 -36.02767871 53.44703476 -35.0703125 51.671875 C-34.5743457 50.74955078 -34.07837891 49.82722656 -33.56738281 48.87695312 C-30.88851986 43.95986263 -28.10087139 39.10557631 -25.3125 34.25 C-24.78325928 33.32703125 -24.25401855 32.4040625 -23.70874023 31.453125 C-22.47391854 29.30125908 -21.23775499 27.15017959 -20 25 C-19.34 25 -18.68 25 -18 25 C-16.48691105 22.92624732 -16.48691105 22.92624732 -14.9375 20.25 C-10.59552794 13.21709988 -5.86397302 5.86397302 0 0 Z M-10 34 C-11.33838733 36.45570175 -12.67086232 38.91429916 -14 41.375 C-14.3815625 42.07367188 -14.763125 42.77234375 -15.15625 43.4921875 C-17.25724744 47.0428946 -17.25724744 47.0428946 -18 51 C-18.66 51 -19.32 51 -20 51 C-21.33858524 53.28874173 -22.67101014 55.58069656 -24 57.875 C-24.3815625 58.52597656 -24.763125 59.17695313 -25.15625 59.84765625 C-27.27551156 63.20350201 -27.27551156 63.20350201 -28 67 C-23.99393058 66.4354265 -19.98931792 65.86151547 -15.98535156 65.28222656 C-14.06195197 65.00880675 -12.13645813 64.75024697 -10.2109375 64.4921875 C-9.04820312 64.32976562 -7.88546875 64.16734375 -6.6875 64 C-5.08455078 63.7834375 -5.08455078 63.7834375 -3.44921875 63.5625 C-2.64097656 63.376875 -1.83273437 63.19125 -1 63 C1.61107526 57.77784948 1.66752935 49.77448017 1 44 C-1.41336955 38.95765729 -5.00579895 36.29223862 -10 34 Z " fill="#020101" transform="translate(650,383)"/>
<path d="M0 0 C0.74189072 -0.00428513 1.48378143 -0.00857025 2.24815369 -0.01298523 C3.8123167 -0.01871492 5.37650636 -0.01923883 6.94067383 -0.01489258 C9.3352578 -0.01172482 11.72861485 -0.03523368 14.12304688 -0.06054688 C15.64452969 -0.06281922 17.16601583 -0.06352366 18.6875 -0.0625 C19.40317642 -0.07170975 20.11885284 -0.08091949 20.85621643 -0.09040833 C23.74512936 -0.06345313 25.78901016 -0.0223601 28.23608398 1.59692383 C29.95624881 4.41170232 29.5142378 7.10271156 29.27734375 10.30078125 C27.20671092 12.37141408 22.83392335 11.62562709 19.96484375 11.73828125 C12.61558953 12.07672413 5.50070182 12.84194619 -1.72265625 14.30078125 C-2.44343169 16.41710063 -3.15358983 18.536182 -3.8515625 20.66015625 C-4.42713891 22.4049529 -5.01805325 24.14477269 -5.625 25.87890625 C-7.35512401 31.07725121 -8.36268223 34.89834274 -6.72265625 40.30078125 C-5.34689907 42.77888015 -3.85990891 45.16829573 -2.35546875 47.5703125 C2.70401693 56.03103137 5.95384117 64.33241823 4.27734375 74.30078125 C2.46930971 77.37443911 1.41694911 78.73097857 -1.72265625 80.30078125 C-5.03515625 80.73828125 -5.03515625 80.73828125 -8.72265625 80.30078125 C-13.34469913 76.10869585 -15.40773615 71.00775303 -17.72265625 65.30078125 C-21.10072026 73.37798942 -21.07692081 80.68724796 -20.91015625 89.36328125 C-20.89507581 90.71938611 -20.88139337 92.07550727 -20.86914062 93.43164062 C-20.83401461 96.72177727 -20.78482265 100.01106308 -20.72265625 103.30078125 C-19.73265625 102.97078125 -18.74265625 102.64078125 -17.72265625 102.30078125 C-15.32774639 102.23108073 -12.93097934 102.21630122 -10.53515625 102.23828125 C-9.26285156 102.24730469 -7.99054687 102.25632812 -6.6796875 102.265625 C-5.70386719 102.27722656 -4.72804688 102.28882813 -3.72265625 102.30078125 C0.07320414 109.61992695 0.07320414 109.61992695 -0.72265625 113.30078125 C-4.80160667 116.56082193 -8.51777327 116.67553286 -13.53515625 116.48828125 C-14.57446289 116.46797852 -14.57446289 116.46797852 -15.63476562 116.44726562 C-17.3310689 116.4121697 -19.02696761 116.35837068 -20.72265625 116.30078125 C-21.38265625 118.61078125 -22.04265625 120.92078125 -22.72265625 123.30078125 C-23.71265625 123.30078125 -24.70265625 123.30078125 -25.72265625 123.30078125 C-26.21765625 119.83578125 -26.21765625 119.83578125 -26.72265625 116.30078125 C-31.67265625 116.79578125 -31.67265625 116.79578125 -36.72265625 117.30078125 C-37.05265625 118.29078125 -37.38265625 119.28078125 -37.72265625 120.30078125 C-40.48281626 119.79893398 -43.05631124 119.18956292 -45.72265625 118.30078125 C-50.26535983 116.92996541 -54.9221305 116.91576498 -59.63671875 116.7421875 C-63.03815608 116.25565279 -64.96937306 115.32350012 -67.72265625 113.30078125 C-68.72265625 111.30078125 -68.72265625 111.30078125 -68.72265625 109.30078125 C-67.1325316 106.5445652 -65.36150833 106.18039861 -62.34765625 105.17578125 C-56.56347463 103.87596516 -50.62588633 103.64273665 -44.72265625 103.30078125 C-44.55660889 102.76074463 -44.39056152 102.22070801 -44.21948242 101.66430664 C-43.46222597 99.22653448 -42.68648485 96.79504341 -41.91015625 94.36328125 C-41.64912109 93.51314453 -41.38808594 92.66300781 -41.11914062 91.78710938 C-40.85810547 90.97822266 -40.59707031 90.16933594 -40.328125 89.3359375 C-40.09246826 88.58707275 -39.85681152 87.83820801 -39.61401367 87.06665039 C-38.72265625 85.30078125 -38.72265625 85.30078125 -35.72265625 84.30078125 C-35.22438904 82.30112739 -34.74996954 80.29393231 -34.36181641 78.27001953 C-33.5954189 74.7096962 -32.57597453 71.24659486 -31.515625 67.765625 C-31.30720978 67.07924957 -31.09879456 66.39287415 -30.88406372 65.68569946 C-30.22876533 63.53573413 -29.56949439 61.38701067 -28.91015625 59.23828125 C-28.47952103 57.82496015 -28.04918085 56.41154913 -27.61914062 54.99804688 C-27.18892854 53.58720102 -26.75859006 52.17639369 -26.328125 50.765625 C-26.11550018 50.0675473 -25.90287537 49.3694696 -25.68380737 48.65023804 C-24.59369538 45.08679985 -23.47886512 41.53401969 -22.31884766 37.99267578 C-22.09119217 37.28953751 -21.86353668 36.58639923 -21.62898254 35.86195374 C-21.00291757 33.93396648 -20.3676318 32.00898033 -19.73168945 30.08422852 C-18.40581208 25.49114388 -18.40581208 25.49114388 -17.72265625 17.30078125 C-24.65265625 17.30078125 -31.58265625 17.30078125 -38.72265625 17.30078125 C-39.05265625 15.65078125 -39.38265625 14.00078125 -39.72265625 12.30078125 C-31.71703359 6.64317641 -23.52197617 4.46516006 -13.94921875 2.828125 C-11.73290042 2.42530146 -11.73290042 2.42530146 -10.06616211 1.28662109 C-6.75214072 -0.10748437 -3.53706989 -0.0045172 0 0 Z " fill="#020201" transform="translate(734.72265625,388.69921875)"/>
<path d="M0 0 C2.5 1 2.5 1 4.3125 3.125 C6.17625473 7.63724829 6.06510733 11.33999721 4.5 15.9375 C4.17 16.618125 3.84 17.29875 3.5 18 C4.04527344 17.7834375 4.59054687 17.566875 5.15234375 17.34375 C11.60703591 14.96047905 17.75870173 13.42034073 24.3125 16.1875 C27.36233368 18.71450505 29.72459283 21.44918566 31.5 25 C32.1489625 33.10671184 32.43391187 40.27061133 27.5 47 C27.00242187 47.68707031 26.50484375 48.37414062 25.9921875 49.08203125 C21.862696 54.25830083 17.45202205 57.2210758 11.5 60 C10.76265625 60.40476562 10.0253125 60.80953125 9.265625 61.2265625 C1.45584596 65.0790374 -6.11565524 63.95702198 -14.5 63 C-14.62375 64.216875 -14.7475 65.43375 -14.875 66.6875 C-15.12460491 69.14194826 -15.51996339 71.04937448 -16.44921875 73.34765625 C-17.67821462 76.44984285 -18.29381081 79.4770041 -18.9375 82.75 C-19.93431937 87.58809803 -21.13763728 92.13334545 -22.81640625 96.76953125 C-23.90280324 100.31428944 -24.37347801 103.94980796 -24.875 107.6171875 C-25.57841946 110.29897418 -26.26355396 111.38388206 -28.5 113 C-31.1875 112.6875 -31.1875 112.6875 -33.5 112 C-34.51691108 107.42390016 -34.35008232 104.16553586 -33.25 99.625 C-32.96769531 98.41070313 -32.68539063 97.19640625 -32.39453125 95.9453125 C-32.17144287 94.9867334 -32.17144287 94.9867334 -31.94384766 94.00878906 C-30.88924513 89.23581348 -30.09787764 84.40608838 -29.24609375 79.59375 C-28.55283602 76.25449809 -27.60817911 73.22052053 -26.5 70 C-26.05876057 68.47521714 -25.62739464 66.94756029 -25.203125 65.41796875 C-21.61329657 52.47846627 -17.64585099 39.79697511 -12.63671875 27.33203125 C-12.00734306 25.76320908 -11.37843234 24.19420029 -10.75 22.625 C-10.44747314 21.8712207 -10.14494629 21.11744141 -9.83325195 20.34082031 C-7.86338586 15.30072237 -6.55980572 10.47376259 -5.984375 5.06640625 C-5.15592602 1.53213598 -3.63404874 0 0 0 Z M9.47265625 28.515625 C6.85853424 31.80786579 5.89542851 35.06070417 4.75 39.0625 C4.52957031 39.78244141 4.30914062 40.50238281 4.08203125 41.24414062 C3.18222495 44.2537412 2.5 46.84323992 2.5 50 C8.41812267 48.6684224 12.42926746 45.34578204 16.5 41 C18.37879671 38.02874003 18.75100146 35.80508024 18.6875 32.3125 C18.68105469 31.52488281 18.67460937 30.73726563 18.66796875 29.92578125 C18.70733669 27.99300636 18.70733669 27.99300636 17.5 27 C14.13891083 26.62654565 12.23447644 26.45091164 9.47265625 28.515625 Z " fill="#060504" transform="translate(353.5,426)"/>
<path d="M0 0 C2.09848394 1.80989086 4.06548792 3.71939337 6.05078125 5.65234375 C7.21673828 6.60560547 7.21673828 6.60560547 8.40625 7.578125 C10.63930993 9.49601985 12.43389367 11.19026494 14.05078125 13.65234375 C14.24176855 16.94687471 13.17841874 19.58943651 12.05078125 22.65234375 C9.80257292 30.96037799 9.80998898 36.08457489 13.67578125 43.96484375 C16.39450892 47.04129875 18.3760813 47.84068169 22.24609375 48.9140625 C24.05078125 49.65234375 24.05078125 49.65234375 26.05078125 52.65234375 C25.72664435 55.97474699 25.44301822 57.26010678 23.05078125 59.65234375 C17.13882468 60.36177854 12.77814575 59.13517614 8.05078125 55.65234375 C3.81083718 51.19236267 0.50601 46.28492736 -1.94921875 40.65234375 C-2.56796875 41.28849609 -2.56796875 41.28849609 -3.19921875 41.9375 C-23.48170258 62.53689764 -23.48170258 62.53689764 -35.76171875 63.02734375 C-39.23104578 62.97155048 -41.64752988 62.73785094 -44.51171875 60.71484375 C-47.1543306 57.39463912 -48.10684637 55.61863322 -48.31640625 51.44140625 C-47.08027722 42.05208573 -41.89694308 32.58816002 -36.94921875 24.65234375 C-36.3871875 23.72035156 -35.82515625 22.78835938 -35.24609375 21.828125 C-29.37626617 12.51037025 -21.63233788 2.1255914 -11.07421875 -2.09765625 C-6.92550729 -2.58573995 -3.5304458 -2.44088938 0 0 Z M-7.94921875 10.65234375 C-19.47321084 19.92057569 -28.47360144 31.82974883 -33.94921875 45.65234375 C-33.94921875 46.64234375 -33.94921875 47.63234375 -33.94921875 48.65234375 C-28.90369747 47.34979078 -25.7439713 45.0934514 -22.07421875 41.52734375 C-21.5539209 41.03379395 -21.03362305 40.54024414 -20.49755859 40.03173828 C-19.45493751 39.03875047 -18.41657981 38.0412644 -17.3828125 37.0390625 C-16.13688434 35.83387313 -14.87271007 34.64760232 -13.60546875 33.46484375 C-5.26817472 25.61936061 -5.26817472 25.61936061 -1.76171875 15.21484375 C-2.7179418 12.4187753 -2.7179418 12.4187753 -5.5234375 11.4921875 C-6.32394531 11.21503906 -7.12445313 10.93789063 -7.94921875 10.65234375 Z " fill="#000000" transform="translate(516.94921875,435.34765625)"/>
<path d="M0 0 C5.82258535 6.08724832 5.82258535 6.08724832 6.25 10.6953125 C5.95041141 14.65549924 4.74231382 17.31777596 3 20.875 C2.1646875 22.60363281 2.1646875 22.60363281 1.3125 24.3671875 C0.879375 25.23601562 0.44625 26.10484375 0 27 C2.80256871 25.15620479 5.57672574 23.31345568 8.2734375 21.31640625 C21.66139827 11.49716057 21.66139827 11.49716057 28.62890625 12.3046875 C33.09308186 13.61378677 35.40618154 15.93619252 37.6484375 19.953125 C39.66946886 24.89442445 39.20950471 29.8803987 39 35.125 C38.45496306 43.56701407 38.45496306 43.56701407 42 51 C42.25 54.25 42.25 54.25 42 57 C41 58 41 58 37.8125 58.375 C32.94112913 57.89584877 31.27978981 56.58488654 28 53 C25.84335323 47.30703345 25.75560696 42.10103277 25.875 36.0625 C25.88402344 35.18787109 25.89304687 34.31324219 25.90234375 33.41210938 C25.9257043 31.27461936 25.96156753 29.13727214 26 27 C20.35203245 29.69490536 15.19496402 32.6761869 10.0625 36.25 C9.36737305 36.73235107 8.67224609 37.21470215 7.95605469 37.71166992 C-1.81010774 44.42123612 -1.81010774 44.42123612 -9.1875 53.5 C-11 56 -11 56 -13.875 56.75 C-18.20994338 55.70961359 -20.59238934 53.73965643 -23 50 C-24.31172986 42.27536863 -20.6137431 34.95440024 -17.109375 28.2421875 C-14.81778835 23.61060039 -12.94103762 18.78657236 -11 14 C-10.44505859 12.69675781 -10.44505859 12.69675781 -9.87890625 11.3671875 C-8.83416493 8.8377229 -8.83416493 8.8377229 -8.5625 5.3125 C-8.376875 4.219375 -8.19125 3.12625 -8 2 C-4.73201451 -0.178657 -3.79094962 -0.72208564 0 0 Z " fill="#000000" transform="translate(418,437)"/>
<path d="M0 0 C0.66 0 1.32 0 2 0 C2.34020619 20.97938144 2.34020619 20.97938144 0 28 C-0.19933329 29.44378208 -0.36239768 30.89278272 -0.5 32.34375 C-0.5825 33.17777344 -0.665 34.01179688 -0.75 34.87109375 C-0.8325 35.73863281 -0.915 36.60617187 -1 37.5 C-1.16347639 39.21905637 -1.33001668 40.93782485 -1.5 42.65625 C-1.5721875 43.41744141 -1.644375 44.17863281 -1.71875 44.96289062 C-2 47 -2 47 -3 50 C-4.12792969 49.9690625 -5.25585938 49.938125 -6.41796875 49.90625 C-11.16193771 49.90625 -15.65779524 50.64387369 -20.3125 51.5 C-21.8915453 51.78338566 -23.47095984 52.06472351 -25.05078125 52.34375 C-25.73825439 52.46943359 -26.42572754 52.59511719 -27.1340332 52.72460938 C-29 53 -29 53 -32 53 C-31.46926175 48.34742444 -30.23413484 45.18079189 -27.8125 41.1875 C-27.17957031 40.13949219 -26.54664063 39.09148437 -25.89453125 38.01171875 C-23.83478587 34.73736063 -21.7007789 31.52620657 -19.51953125 28.33203125 C-17.7897718 25.67736187 -16.24438278 22.94694051 -14.6875 20.1875 C-10.58533501 13.05449436 -5.83822005 5.83822005 0 0 Z " fill="#ECBCA0" transform="translate(307,398)"/>
<path d="M0 0 C0.66 0 1.32 0 2 0 C16.865287 25.60132761 16.865287 25.60132761 15 38 C13.19196596 41.07365786 12.13960536 42.43019732 9 44 C5.6875 44.4375 5.6875 44.4375 2 44 C-3.35705141 39.14127895 -6.67586716 32.60060816 -7.32421875 25.3984375 C-7.20403553 19.9590338 -5.31319523 15.07554649 -3.5 10 C-3.16613281 9.03449219 -2.83226562 8.06898438 -2.48828125 7.07421875 C-1.66972571 4.71210134 -0.84016314 2.35449975 0 0 Z " fill="#F3C2A5" transform="translate(724,425)"/>
<path d="M0 0 C1.98 0 3.96 0 6 0 C7.32 4.62 8.64 9.24 10 14 C11.66832577 11.49751135 12.62381674 9.58850813 13.625 6.8125 C13.88539063 6.09707031 14.14578125 5.38164063 14.4140625 4.64453125 C14.60742188 4.10183594 14.80078125 3.55914063 15 3 C17.64 3 20.28 3 23 3 C23.50512244 4.60256108 24.00391627 6.20711792 24.5 7.8125 C24.7784375 8.70582031 25.056875 9.59914063 25.34375 10.51953125 C26 13 26 13 26 16 C26.66 16 27.32 16 28 16 C28.103125 14.845 28.20625 13.69 28.3125 12.5 C28.86035113 7.98828481 30.2774879 4.19394251 32 0 C33.65 0 35.3 0 37 0 C38.21811123 3.65433368 37.64631159 5.05985624 36.6015625 8.7265625 C36.12976563 10.3971875 36.12976563 10.3971875 35.6484375 12.1015625 C35.31070313 13.26429688 34.97296875 14.42703125 34.625 15.625 C34.295 16.79546875 33.965 17.9659375 33.625 19.171875 C31.147778 27.852222 31.147778 27.852222 30 29 C28.00041636 29.04080783 25.99954746 29.04254356 24 29 C22.23945126 24.35855331 20.53472968 19.72224516 19 15 C17.23945126 19.64144669 15.53472968 24.27775484 14 29 C11.69 29 9.38 29 7 29 C5.82225034 25.10742998 4.65976173 21.21046365 3.5 17.3125 C3.16613281 16.20970703 2.83226562 15.10691406 2.48828125 13.97070312 C2.17246094 12.90400391 1.85664063 11.83730469 1.53125 10.73828125 C1.09135742 9.26935425 1.09135742 9.26935425 0.64257812 7.77075195 C0.01660433 5.07159672 -0.12328304 2.75845795 0 0 Z " fill="#000000" transform="translate(450,555)"/>
<path d="M0 0 C2.97 0 5.94 0 9 0 C9.83739781 2.1234016 10.66980283 4.2487728 11.5 6.375 C11.9640625 7.55835938 12.428125 8.74171875 12.90625 9.9609375 C14 13 14 13 14 15 C14.66 15 15.32 15 16 15 C16.29003906 14.00419922 16.29003906 14.00419922 16.5859375 12.98828125 C19.17223199 4.21792619 19.17223199 4.21792619 21 0 C23.64 0 26.28 0 29 0 C29 9.57 29 19.14 29 29 C27.02 29 25.04 29 23 29 C22.505 22.565 22.505 22.565 22 16 C20.35 19.3 18.7 22.6 17 26 C15.35 26 13.7 26 12 26 C10.35 22.04 8.7 18.08 7 14 C6.34 18.62 5.68 23.24 5 28 C3.68 28 2.36 28 1 28 C0.67 18.76 0.34 9.52 0 0 Z " fill="#040302" transform="translate(353,555)"/>
<path d="M0 0 C4.33125 -0.12375 4.33125 -0.12375 8.75 -0.25 C9.65331055 -0.28641602 10.55662109 -0.32283203 11.48730469 -0.36035156 C17.38134651 -0.44203028 17.38134651 -0.44203028 20.55859375 1.828125 C22.48699548 4.73379265 22.35717512 6.57111884 22 10 C21.773125 10.70125 21.54625 11.4025 21.3125 12.125 C21.209375 12.74375 21.10625 13.3625 21 14 C21.495 14.598125 21.99 15.19625 22.5 15.8125 C24 18 24 18 24 21.5 C22.76927946 25.80752188 21.82295622 26.72501959 18 29 C14.87284149 29.47202393 11.84061052 29.3784085 8.6875 29.25 C4.3871875 29.12625 4.3871875 29.12625 0 29 C0 19.43 0 9.86 0 0 Z M6 4 C6 6.64 6 9.28 6 12 C8.832168 12.33448259 8.832168 12.33448259 12 12 C14.37719693 10.12498069 14.37719693 10.12498069 16 8 C15.34 6.68 14.68 5.36 14 4 C11.36 4 8.72 4 6 4 Z M6 16 C6 18.97 6 21.94 6 25 C7.8871875 25.061875 7.8871875 25.061875 9.8125 25.125 C10.52019531 25.14820313 11.22789062 25.17140625 11.95703125 25.1953125 C14.31359719 25.13254462 14.31359719 25.13254462 17 23 C17.5 20.5 17.5 20.5 17 18 C13.91111478 15.94074319 13.29064073 15.7609626 9.8125 15.875 C8.554375 15.91625 7.29625 15.9575 6 16 Z " fill="#000000" transform="translate(656,555)"/>
<path d="M0 0 C1.69576172 -0.03867187 1.69576172 -0.03867187 3.42578125 -0.078125 C7.01825748 0.28327381 8.8198081 1.10178241 11.6875 3.25 C15.24410789 8.27830771 15.38420863 13.30862366 14.6875 19.25 C13.41234288 23.07547135 12.10008804 24.85804136 9.1875 27.625 C4.27029414 29.90798843 0.02030546 30.01182935 -5.3125 29.25 C-9.43682715 27.48243122 -11.42331045 25.6355984 -13.25 21.625 C-14.76377655 16.76641179 -14.67621644 12.14141405 -13.3125 7.25 C-9.88929244 1.34586153 -6.58937273 0.0895498 0 0 Z M-6.3125 7.25 C-8.16377843 10.95255686 -7.7763553 15.20874013 -7.3125 19.25 C-5.59295963 22.25919565 -4.42839802 23.67405263 -1.375 25.25 C1.63659007 25.25 3.27188057 23.96636117 5.6875 22.25 C8.43010986 19.50739014 8.37975913 17.27303256 8.71875 13.5078125 C8.67445259 10.30732449 7.78352565 8.63513264 5.6875 6.25 C1.00926935 3.17991113 -1.88373828 4.21979461 -6.3125 7.25 Z " fill="#000000" transform="translate(430.3125,554.75)"/>
<path d="M0 0 C3.073125 -0.061875 6.14625 -0.12375 9.3125 -0.1875 C10.27712158 -0.21481201 11.24174316 -0.24212402 12.2355957 -0.27026367 C13.38161255 -0.28150269 13.38161255 -0.28150269 14.55078125 -0.29296875 C15.72120972 -0.31653442 15.72120972 -0.31653442 16.9152832 -0.34057617 C19.56680588 0.09259799 20.39738567 0.87513384 22 3 C23.00398577 6.87251652 23.42446832 9.0661697 21.75 12.75 C20.26161622 14.66363629 18.79561766 16.37539354 17 18 C17.78375 18.969375 18.5675 19.93875 19.375 20.9375 C19.81585937 21.48277344 20.25671875 22.02804687 20.7109375 22.58984375 C21.9666391 24.13266437 21.9666391 24.13266437 24 25 C24 26.32 24 27.64 24 29 C21.328125 29.33984375 21.328125 29.33984375 18 29 C15.296875 26.62890625 15.296875 26.62890625 12.75 23.5625 C9.8052668 19.77427836 9.8052668 19.77427836 6 17 C6.01160156 17.78246094 6.02320313 18.56492187 6.03515625 19.37109375 C6.04417969 20.38300781 6.05320312 21.39492188 6.0625 22.4375 C6.07410156 23.44683594 6.08570313 24.45617187 6.09765625 25.49609375 C6 28 6 28 5 29 C3.35 29 1.7 29 0 29 C0 19.43 0 9.86 0 0 Z M6 4 C6 6.97 6 9.94 6 13 C11.06951233 13.42913713 11.06951233 13.42913713 15.5 11.25 C17.22827635 9.14611335 17.22827635 9.14611335 16.875 6.8125 C16.13800752 4.81439869 16.13800752 4.81439869 14 4 C12.62657169 3.9310528 11.24997898 3.91532292 9.875 3.9375 C7.956875 3.9684375 7.956875 3.9684375 6 4 Z " fill="#000000" transform="translate(522,555)"/>
<path d="M0 0 C3.2409417 1.16817677 5.25197208 2.81670845 7.12109375 5.7734375 C8.9092189 10.30335454 8.5239533 15.22691321 8 20 C6.00222168 24.06690587 3.84152401 26.6385728 0 29 C-2.83984375 29.3984375 -2.83984375 29.3984375 -5.9375 29.375 C-6.95714844 29.38273438 -7.97679687 29.39046875 -9.02734375 29.3984375 C-12.39952727 28.9464497 -14.26628094 27.99293855 -17 26 C-20.90575016 20.74743944 -20.8639745 14.29346131 -20 8 C-15.71007856 -1.04041727 -9.19189294 -1.03908355 0 0 Z M-12 6 C-14.30715862 8.99930621 -14.4176673 12.24449957 -14.3203125 15.96484375 C-13.78483415 19.36709033 -12.23383351 21.45591184 -10 24 C-8.17576488 25.24774386 -8.17576488 25.24774386 -6 25 C-2.94409951 23.83875781 -0.71131816 22.87298137 1.375 20.3125 C2.72204305 15.32844073 2.8498971 11.53635245 0.375 7.0625 C-3.50579605 3.69233501 -7.72723274 2.79542456 -12 6 Z " fill="#000000" transform="translate(642,555)"/>
<path d="M0 0 C1.68609375 -0.04253906 1.68609375 -0.04253906 3.40625 -0.0859375 C7.0807397 0.46152435 8.20821181 1.53273327 10.5 4.375 C9.2734375 5.9375 9.2734375 5.9375 7.5 7.375 C5.4140625 7.125 5.4140625 7.125 3.125 6.375 C-0.04372479 5.56475604 -1.26332658 5.31090095 -4.5 6.1875 C-7.13959343 9.07455531 -7.42263144 11.30813129 -7.62890625 15.15234375 C-7.44171472 18.37997959 -6.71352052 20.01867171 -4.5 22.375 C-1.2829808 23.7824459 0.9905346 24.375 4.5 24.375 C4.5 22.395 4.5 20.415 4.5 18.375 C2.52 18.375 0.54 18.375 -1.5 18.375 C-1.5 17.055 -1.5 15.735 -1.5 14.375 C2.46 14.375 6.42 14.375 10.5 14.375 C10.5 18.665 10.5 22.955 10.5 27.375 C5.08837582 30.08081209 0.45947576 30.00525246 -5.5 29.375 C-9.70361398 27.53130966 -11.06040962 26.12230365 -13.375 22.1875 C-15.12629009 16.25257246 -15.70663157 11.05860587 -12.75 5.4375 C-9.08872543 0.45409851 -6.06678135 0.06957318 0 0 Z " fill="#000000" transform="translate(581.5,554.625)"/>
<path d="M0 0 C7.59 0 15.18 0 23 0 C22.67 1.32 22.34 2.64 22 4 C17.05 4 12.1 4 7 4 C7 6.64 7 9.28 7 12 C11.29 12 15.58 12 20 12 C20 13.32 20 14.64 20 16 C15.71 16 11.42 16 7 16 C7 18.97 7 21.94 7 25 C12.28 25 17.56 25 23 25 C23 26.32 23 27.64 23 29 C19.35418313 29.02887512 15.70839537 29.04675585 12.0625 29.0625 C10.50112305 29.07506836 10.50112305 29.07506836 8.90820312 29.08789062 C7.91884766 29.09111328 6.92949219 29.09433594 5.91015625 29.09765625 C4.53549194 29.10551147 4.53549194 29.10551147 3.13305664 29.11352539 C1 29 1 29 0 28 C-0.08767112 25.92737924 -0.10695873 23.85179706 -0.09765625 21.77734375 C-0.09443359 20.51728516 -0.09121094 19.25722656 -0.08789062 17.95898438 C-0.07953403 16.61848891 -0.07106907 15.27799412 -0.0625 13.9375 C-0.0574866 12.59310058 -0.05292342 11.2486994 -0.04882812 9.90429688 C-0.03699497 6.60284567 -0.01905886 3.3014174 0 0 Z " fill="#000000" transform="translate(685,555)"/>
<path d="M0 0 C3.0525 -0.0825 6.105 -0.165 9.25 -0.25 C10.20551758 -0.28641602 11.16103516 -0.32283203 12.14550781 -0.36035156 C18.38339118 -0.44218583 18.38339118 -0.44218583 21.5546875 1.83203125 C23.42580759 4.63871139 23.86261033 6.63395303 24 10 C23.03546457 13.45625195 21.89245765 15.85061534 19 18 C15.86328125 18.29296875 15.86328125 18.29296875 12.3125 18.1875 C11.13300781 18.16042969 9.95351563 18.13335938 8.73828125 18.10546875 C7.83464844 18.07066406 6.93101562 18.03585937 6 18 C6 21.63 6 25.26 6 29 C4.02 29 2.04 29 0 29 C0 19.43 0 9.86 0 0 Z M6 4 C6 7.3 6 10.6 6 14 C7.8871875 14.061875 7.8871875 14.061875 9.8125 14.125 C10.52019531 14.14820313 11.22789062 14.17140625 11.95703125 14.1953125 C14.31359719 14.13254462 14.31359719 14.13254462 17 12 C17.41666667 9 17.41666667 9 17 6 C15.21342243 3.78629949 15.21342243 3.78629949 12.8359375 3.8046875 C9.41796875 3.90234375 9.41796875 3.90234375 6 4 Z " fill="#000000" transform="translate(389,555)"/>
<path d="M0 0 C7.26 0 14.52 0 22 0 C21.67 1.32 21.34 2.64 21 4 C16.05 4 11.1 4 6 4 C6 6.64 6 9.28 6 12 C10.62 12 15.24 12 20 12 C20 13.32 20 14.64 20 16 C15.38 16 10.76 16 6 16 C6 18.97 6 21.94 6 25 C11.28 25 16.56 25 22 25 C22 26.32 22 27.64 22 29 C14.74 29 7.48 29 0 29 C0 19.43 0 9.86 0 0 Z " fill="#000000" transform="translate(494,555)"/>
<path d="M0 0 C-0.65631481 2.26775442 -1.33050067 4.52825452 -2.0234375 6.78515625 C-2.74572822 9.16293729 -3.43190223 11.54120642 -4.1015625 13.93359375 C-4.50409362 15.28939395 -4.90773625 16.64486466 -5.3125 18 C-5.48869873 18.6587915 -5.66489746 19.31758301 -5.84643555 19.99633789 C-6.42578125 21.875 -6.42578125 21.875 -8 25 C-11.74885667 26.79357064 -14.8710233 27.24288098 -19 27 C-19.99213242 19.72436225 -16.84436996 14.05194486 -13 8 C-9.60281594 4.26596435 -5.18015576 0 0 0 Z " fill="#F1C0A3" transform="translate(363,453)"/>
<path d="M0 0 C2.31 0 4.62 0 7 0 C7 8.25 7 16.5 7 25 C11.29 25 15.58 25 20 25 C19.67 26.32 19.34 27.64 19 29 C16.02077407 29.02683987 13.04178705 29.04676037 10.0625 29.0625 C8.78729492 29.07506836 8.78729492 29.07506836 7.48632812 29.08789062 C6.67744141 29.09111328 5.86855469 29.09433594 5.03515625 29.09765625 C4.2862915 29.10289307 3.53742676 29.10812988 2.76586914 29.11352539 C1 29 1 29 0 28 C-0.08767112 25.92737924 -0.10695873 23.85179706 -0.09765625 21.77734375 C-0.09443359 20.51728516 -0.09121094 19.25722656 -0.08789062 17.95898438 C-0.07953403 16.61848891 -0.07106907 15.27799412 -0.0625 13.9375 C-0.0574866 12.59310058 -0.05292342 11.2486994 -0.04882812 9.90429688 C-0.03699488 6.60282059 -0.02050971 3.30143197 0 0 Z " fill="#000000" transform="translate(598,555)"/>
<path d="M0 0 C0.66 0 1.32 0 2 0 C2.16993336 10.30929028 2.24846606 20.89135004 0 31 C-1.14323584 29.85676416 -2.28457371 28.7115864 -3.41796875 27.55859375 C-4.55725963 26.43618126 -5.73137795 25.34873242 -6.92578125 24.28515625 C-7.56902344 23.69605469 -8.21226562 23.10695313 -8.875 22.5 C-9.49117187 21.9534375 -10.10734375 21.406875 -10.7421875 20.84375 C-12 19 -12 19 -11.9375 16.59765625 C-10.80930109 13.47160511 -9.26596059 11.47449908 -7.125 8.9375 C-6.07699219 7.68259766 -6.07699219 7.68259766 -5.0078125 6.40234375 C-4.34523438 5.60957031 -3.68265625 4.81679688 -3 4 C-2.46117187 3.23816406 -1.92234375 2.47632813 -1.3671875 1.69140625 C-0.91601562 1.13324219 -0.46484375 0.57507813 0 0 Z " fill="#EDBCA0" transform="translate(653,398)"/>
<path d="M0 0 C6.27 0 12.54 0 19 0 C19 0.99 19 1.98 19 3 C13.72 3 8.44 3 3 3 C3 5.97 3 8.94 3 12 C7.62 12 12.24 12 17 12 C17 12.99 17 13.98 17 15 C12.38 15 7.76 15 3 15 C3 18.3 3 21.6 3 25 C8.61 25 14.22 25 20 25 C20 25.99 20 26.98 20 28 C13.4 28 6.8 28 0 28 C0 18.76 0 9.52 0 0 Z " fill="#050403" transform="translate(327,555)"/>
<path d="M0 0 C0.33 0 0.66 0 1 0 C1.8632601 3.71888866 2.11721556 7.14296488 2.09765625 10.95703125 C2.09443359 12.06884766 2.09121094 13.18066406 2.08789062 14.32617188 C2.07951172 15.47666016 2.07113281 16.62714844 2.0625 17.8125 C2.05798828 18.98232422 2.05347656 20.15214844 2.04882812 21.35742188 C2.0370693 24.23833358 2.02063426 27.11914044 2 30 C-4.15234375 30.09765625 -4.15234375 30.09765625 -6 30 C-7 29 -7 29 -7.2109375 25.94140625 C-6.97712523 21.57258061 -6.01772619 18.04917199 -4.625 13.9375 C-4.40328125 13.25623047 -4.1815625 12.57496094 -3.953125 11.87304688 C-3.31253291 9.91170464 -2.6584025 7.955425 -2 6 C-1.61585938 4.84628906 -1.23171875 3.69257813 -0.8359375 2.50390625 C-0.56007813 1.67761719 -0.28421875 0.85132813 0 0 Z " fill="#E7B89D" transform="translate(712,463)"/>
<path d="M0 0 C0.33 0 0.66 0 1 0 C1 8.25 1 16.5 1 25 C7.27 25 13.54 25 20 25 C20 25.99 20 26.98 20 28 C13.4 28 6.8 28 0 28 C0 18.76 0 9.52 0 0 Z " fill="#100C0A" transform="translate(327,555)"/>
<path d="M0 0 C1.98 0 3.96 0 6 0 C5.125 6.75 5.125 6.75 4 9 C3.01 9 2.02 9 1 9 C0.67 6.03 0.34 3.06 0 0 Z " fill="#E2B499" transform="translate(708,503)"/>
<path d="M0 0 C0.66 0.33 1.32 0.66 2 1 C-1.3 4.3 -4.6 7.6 -8 11 C-8 6.67750434 -5.85084926 5.11604454 -3 2 C-2.01 1.34 -1.02 0.68 0 0 Z " fill="#CCA28A" transform="translate(357,455)"/>
<path d="M0 0 C0.74636719 0.0825 1.49273438 0.165 2.26171875 0.25 C1.53984375 0.806875 0.81796875 1.36375 0.07421875 1.9375 C-2.71285424 4.22909334 -5.22469653 6.66459857 -7.73828125 9.25 C-8.39828125 8.92 -9.05828125 8.59 -9.73828125 8.25 C-8.69428379 6.90213008 -7.62726059 5.57207271 -6.55078125 4.25 C-5.95910156 3.5075 -5.36742187 2.765 -4.7578125 2 C-2.73828125 0.25 -2.73828125 0.25 0 0 Z " fill="#352A24" transform="translate(652.73828125,382.75)"/>
<path d="M0 0 C0.66 0 1.32 0 2 0 C2 3.96 2 7.92 2 12 C1.67 12 1.34 12 1 12 C0.67 9.36 0.34 6.72 0 4 C-1.98 4.99 -1.98 4.99 -4 6 C-2.7260411 3.96166576 -1.38938077 1.96147874 0 0 Z " fill="#CAA189" transform="translate(653,398)"/>
<path d="M0 0 C0.62109375 1.796875 0.62109375 1.796875 1 4 C-0.9375 7.25 -0.9375 7.25 -3 10 C-3.33 9.34 -3.66 8.68 -4 8 C-3.22265625 6.0546875 -3.22265625 6.0546875 -2.0625 3.875 C-1.49208984 2.78832031 -1.49208984 2.78832031 -0.91015625 1.6796875 C-0.60980469 1.12539063 -0.30945313 0.57109375 0 0 Z " fill="#E1B398" transform="translate(280,414)"/>
<path d="" fill="#F8C3A5" transform="translate(0,0)"/>
</svg>
