<?xml version="1.0" encoding="UTF-8"?>
<svg version="1.1" xmlns="http://www.w3.org/2000/svg" width="1000" height="1000">
<path d="M0 0 C0.78402695 0.0143811 1.56805389 0.02876221 2.37583923 0.0435791 C3.20533081 0.042995 4.03482239 0.04241089 4.88945007 0.04180908 C7.63314054 0.0445974 10.37574661 0.07572402 13.11924744 0.10705566 C15.02067471 0.11451541 16.92210966 0.1202096 18.82354736 0.12420654 C23.82967837 0.13948386 28.83534564 0.17878376 33.84129333 0.22302246 C38.94885484 0.26392994 44.05649123 0.28220789 49.16416931 0.30236816 C59.18715959 0.34527597 69.20980559 0.41355269 79.23252869 0.49768066 C71.19228401 36.16932475 29.91890606 73.12100732 0.82090759 92.06799316 C-4.95489977 95.69596133 -10.83952964 99.12550544 -16.76747131 102.49768066 C-17.85995178 103.12634033 -17.85995178 103.12634033 -18.97450256 103.7677002 C-52.56638593 122.9552718 -92.43067472 131.97216001 -130.95497131 131.87268066 C-131.723172 131.87246918 -132.49137268 131.87225769 -133.28285217 131.87203979 C-181.94158205 131.74001902 -230.89766412 117.3093322 -269.76747131 87.49768066 C-271.23313538 86.43033691 -271.23313538 86.43033691 -272.72840881 85.34143066 C-282.44578294 78.14337575 -291.16355843 69.98130188 -299.76747131 61.49768066 C-300.39331116 60.88263672 -301.019151 60.26759277 -301.66395569 59.63391113 C-317.03635517 44.3487604 -330.83484871 25.31461215 -339.76747131 5.49768066 C-339.76747131 4.50768066 -339.76747131 3.51768066 -339.76747131 2.49768066 C-332.22466375 2.26483209 -324.68215624 2.03505897 -317.13710022 1.88830566 C-316.22290314 1.87041992 -315.30870605 1.85253418 -314.36680603 1.83410645 C-312.46131697 1.79690168 -310.55581946 1.76012724 -308.65031433 1.72375488 C-302.68897554 1.59778447 -296.74255346 1.3644124 -290.78822327 1.05126953 C-286.85937599 0.85712728 -282.92979774 0.72634343 -278.99806213 0.60632324 C-277.11392416 0.53464014 -275.23059233 0.43606776 -273.34938049 0.30895996 C-258.95731371 -0.64172047 -258.95731371 -0.64172047 -253.63194275 2.92996216 C-249.64638618 6.42945034 -246.42804588 10.42221318 -243.24966431 14.64848328 C-226.72086654 35.2699609 -196.58990512 47.90985651 -171.76747131 54.49768066 C-171.0199762 54.70795898 -170.27248108 54.9182373 -169.50233459 55.1348877 C-143.76530045 62.15104874 -113.22816154 60.68875928 -87.76747131 53.49768066 C-86.93924866 53.26774414 -86.111026 53.03780762 -85.25770569 52.80090332 C-55.54511954 44.30214133 -29.62337246 27.15210065 -8.76747131 4.49768066 C-8.39184555 3.79427551 -8.01621979 3.09087036 -7.62921143 2.3661499 C-5.2138783 -0.05791327 -3.3277071 0.02543755 0 0 Z " fill="#292B2A" transform="translate(628.7674713134766,601.5023193359375)"/>
<path d="M0 0 C0.91297852 0.16097168 1.82595703 0.32194336 2.76660156 0.48779297 C61.25044206 11.09066269 116.26471164 44.13367335 151.12890625 92.78125 C155.9288075 99.73271654 160.44904895 106.87052935 164.83691406 114.08789062 C165.82235966 115.70795987 166.82707613 117.31628286 167.8359375 118.921875 C169 121 169 121 169 123 C157.88189397 123.30248289 146.76478101 123.53282625 135.64338398 123.67355824 C130.47780892 123.74113936 125.31506727 123.83263508 120.15112305 123.98071289 C115.15821651 124.12297436 110.16801686 124.19989489 105.17323875 124.23340416 C103.27723783 124.25725029 101.38136953 124.30382143 99.48653603 124.37449074 C83.88701167 124.93263666 83.88701167 124.93263666 78.0027771 120.14640808 C75.15317508 117.46402939 72.66224131 114.55965674 70.24024773 111.49103165 C67.63018088 108.35319701 64.29850052 106.04784642 61 103.6875 C60.32904297 103.19733398 59.65808594 102.70716797 58.96679688 102.20214844 C38.07137468 87.11981289 15.32516093 76.98922627 -10 72 C-10.86761963 71.82170654 -11.73523926 71.64341309 -12.62915039 71.4597168 C-21.2169014 69.84705516 -29.67197506 69.60321702 -38.375 69.625 C-39.11923218 69.62487915 -39.86346436 69.6247583 -40.63024902 69.62463379 C-53.43866673 69.65413521 -65.54165017 70.89027149 -78 74 C-79.24652344 74.28875 -80.49304688 74.5775 -81.77734375 74.875 C-105.75786314 81.02807714 -137.43647008 95.45680488 -153.00448608 115.59262085 C-156.46767163 119.95324352 -159.58804862 123.05709013 -165.21173096 123.87628174 C-170.40591123 124.28449329 -175.58673383 124.12630904 -180.7890625 123.9765625 C-182.70287359 123.95788383 -184.61673289 123.94366217 -186.53060913 123.9336853 C-191.53943651 123.89571638 -196.54530928 123.79768252 -201.55297852 123.68664551 C-206.6742354 123.58387849 -211.79597538 123.53857715 -216.91796875 123.48828125 C-226.94660237 123.38141204 -236.9730544 123.21100998 -247 123 C-246.36269646 119.55266041 -245.64597324 116.99514271 -243.8125 113.99609375 C-243.36567871 113.26140869 -242.91885742 112.52672363 -242.45849609 111.76977539 C-241.73654053 110.61529907 -241.73654053 110.61529907 -241 109.4375 C-240.5045166 108.63755615 -240.0090332 107.8376123 -239.49853516 107.01342773 C-235.33944453 100.37983163 -230.85549854 94.14487857 -226 88 C-225.33911377 87.16009521 -224.67822754 86.32019043 -223.99731445 85.45483398 C-218.33397905 78.39118301 -212.23104365 71.87139327 -205.8125 65.5 C-205.30865784 64.99764832 -204.80481567 64.49529663 -204.28570557 63.97772217 C-196.62443381 56.35705839 -188.82890642 49.25242052 -180 43 C-178.96488281 42.24332031 -177.92976563 41.48664063 -176.86328125 40.70703125 C-126.24998427 4.53688913 -61.41252845 -11.19927855 0 0 Z " fill="#292B2A" transform="translate(537,265)"/>
<path d="M0 0 C0.103125 0.78375 0.20625 1.5675 0.3125 2.375 C0.77595022 5.33045181 0.77595022 5.33045181 4 7 C5.30027053 9.3593144 6.48081403 11.69206615 7.625 14.125 C20.8585638 41.28057889 38.08061133 65.22994151 59 87 C59.46647949 87.48839355 59.93295898 87.97678711 60.41357422 88.47998047 C66.05014452 94.35329856 71.89448161 99.75789993 78.265625 104.82421875 C80.06830145 106.25863415 81.85043653 107.71930634 83.609375 109.20703125 C128.13979716 146.82074583 189.13006305 167.67164815 247 169 C247.79825195 169.02046387 248.59650391 169.04092773 249.41894531 169.06201172 C304.10216889 170.29508478 361.60116251 156.00534855 406.83984375 124.421875 C409 123 409 123 412.25 121.23046875 C416.56035428 118.79320638 420.26627872 115.72300773 424.0625 112.5625 C424.74376953 112.00240234 425.42503906 111.44230469 426.12695312 110.86523438 C429.97030358 107.70180797 429.97030358 107.70180797 433.76123047 104.47607422 C437.79808031 101 437.79808031 101 440 101 C440 100.34 440 99.68 440 99 C441.43359375 97.58984375 441.43359375 97.58984375 443.4375 95.9375 C447.58961788 92.42929345 451.35807233 88.64549595 455.1171875 84.72265625 C457 83 457 83 459 83 C459.3403125 82.1646875 459.3403125 82.1646875 459.6875 81.3125 C461.37550036 78.33840412 463.46676517 76.27991135 466 74 C466.66 74 467.32 74 468 74 C468.10441406 73.41734375 468.20882813 72.8346875 468.31640625 72.234375 C469.10293617 69.66354577 470.17565891 68.2659942 471.9375 66.25 C472.46214844 65.63640625 472.98679687 65.0228125 473.52734375 64.390625 C475 63 475 63 477 63 C477.0721875 62.47019531 477.144375 61.94039062 477.21875 61.39453125 C478.31784536 58.02580398 480.39352052 55.48569439 482.5 52.6875 C487.0729669 46.46654249 491.10125764 40.03849218 494.9921875 33.375 C497 30 497 30 498.90234375 27.296875 C501.95547116 22.49829114 504.27529559 17.39390609 506.6875 12.25 C507.18572266 11.19683594 507.68394531 10.14367187 508.19726562 9.05859375 C509.11375863 7.12114992 510.02828262 5.18277254 510.94018555 3.24316406 C511.61182048 1.82160641 512.29687559 0.40624881 513 -1 C513.59683594 -0.9278125 514.19367187 -0.855625 514.80859375 -0.78125 C523.54727161 0.1536457 532.22515832 0.09258332 541 0 C541.33 1.32 541.66 2.64 542 4 C540.515 4.495 540.515 4.495 539 5 C537.95751714 6.83402128 537.95751714 6.83402128 537 9 C535.95568459 10.4714101 534.89115058 11.92857154 533.8125 13.375 C523.57872968 27.89416165 516.96878237 44.08659501 519 62 C520.06090431 64.94940203 521.40814068 67.27843406 523 70 C523.22879816 74.57596321 520.24143252 77.84674808 517.66796875 81.42578125 C516 83 516 83 512 83 C511.67 84.32 511.34 85.64 511 87 C509.88625 86.835 508.7725 86.67 507.625 86.5 C502.25143409 85.75881849 498.96371246 87.0474496 494 89 C493.04996094 89.35191406 492.09992187 89.70382812 491.12109375 90.06640625 C479.83839644 94.43250751 469.78514194 101.82228709 463 112 C462.34 112 461.68 112 461 112 C460.8865625 112.54785156 460.773125 113.09570312 460.65625 113.66015625 C459.61064322 117.38824234 457.82354492 120.7612535 456.15625 124.24609375 C454.03290628 129.303382 454.0933703 132.79657013 454.75 138.1875 C454.84732476 143.89073065 454.84732476 143.89073065 452.80908203 146.55908203 C448.13389539 151.08746691 442.60232779 155.25397426 436 156 C436 155.34 436 154.68 436 154 C434.02 153.67 432.04 153.34 430 153 C430 152.34 430 151.68 430 151 C409.26128827 151.43798758 392.74456197 155.67642738 377 170 C375.24589649 171.94351375 373.63622297 173.95472129 372 176 C371.34 176 370.68 176 370 176 C369.87882812 176.56847656 369.75765625 177.13695312 369.6328125 177.72265625 C369.28264572 179.33611703 368.91293349 180.94541742 368.52734375 182.55078125 C367.90266573 185.19700022 367.90266573 185.19700022 367.6875 188.75 C365.16072598 193.61637959 361.39146379 194.37453347 356.3359375 196.04296875 C355.23507812 196.35878906 354.13421875 196.67460938 353 197 C352.18789063 197.24363281 351.37578125 197.48726562 350.5390625 197.73828125 C348.5 198.1875 348.5 198.1875 345 198 C342.75 195.375 342.75 195.375 341.60546875 193.69921875 C336.06244954 187.83251958 326.16706476 186.28180815 318.4765625 185.76171875 C302.64746623 185.4566956 287.41137638 188.52790118 275 199 C274.34 199 273.68 199 273 199 C272.731875 199.70125 272.46375 200.4025 272.1875 201.125 C270.93180964 204.16509244 269.48350801 207.06549922 268 210 C248.03307962 211.64659963 248.03307962 211.64659963 243.5546875 208.01953125 C242.25 205.4375 242.25 205.4375 241.1796875 202.671875 C238.27115127 196.08432936 230.32057123 192.97968742 224.0625 190.1875 C210.27429625 184.861434 194.90862049 183.82597794 180.859375 188.71875 C176.29770957 190.76277495 171.30872777 193.38254447 169 198 C164.02555554 197.61735043 159.42180866 196.7053083 154.625 195.3125 C153.60664063 195.01988281 152.58828125 194.72726562 151.5390625 194.42578125 C149 193 149 193 147.71875 190.12109375 C147.4815625 189.09113281 147.244375 188.06117188 147 187 C143.76952372 174.52062587 135.81528097 166.6629856 125 160 C114.5088245 153.94487109 105.22184366 151.06509769 93.1875 150.24609375 C91 150 91 150 90 149 C89.67 149.66 89.34 150.32 89 151 C87.109375 151.81640625 87.109375 151.81640625 84.75 152.5625 C83.98171875 152.81128906 83.2134375 153.06007813 82.421875 153.31640625 C81.62265625 153.54199219 80.8234375 153.76757812 80 154 C79.21496094 154.28359375 78.42992187 154.5671875 77.62109375 154.859375 C73.68131559 155.07074909 71.3241339 152.95560481 68.3125 150.6875 C67.73177734 150.27048828 67.15105469 149.85347656 66.55273438 149.42382812 C64.21748017 147.73110629 62.04172285 146.04172285 60 144 C59.90716148 141.62681522 59.92449147 139.24879937 60 136.875 C60.14754425 124.83737519 57.23116985 118.7620793 50 109 C49.401875 108.19046875 48.80375 107.3809375 48.1875 106.546875 C40.85619163 97.5091414 27.74492649 88.23922846 16 87 C14.94425781 87.13019531 13.88851562 87.26039063 12.80078125 87.39453125 C8.83154582 87.87012833 5.90094588 87.94670843 2 87 C-2.87434726 83.12751226 -7.5095962 76.46285129 -8.3828125 70.296875 C-7.96764024 67.80584147 -7.22188732 66.13944278 -6 63.9375 C-1.59741338 54.45862133 -3.93021175 43.60753812 -7 34 C-8.19626481 31.54744276 -9.56443402 29.32660693 -11 27 C-11 25.68 -11 24.36 -11 23 C-11.66 23 -12.32 23 -13 23 C-17 17.70588235 -17 17.70588235 -17 14 C-16.34 14 -15.68 14 -15 14 C-15 13.34 -15 12.68 -15 12 C-16.65 12.33 -18.3 12.66 -20 13 C-20.020625 12.401875 -20.04125 11.80375 -20.0625 11.1875 C-20.90456616 8.56685398 -20.90456616 8.56685398 -24.5625 7.25 C-25.696875 6.8375 -26.83125 6.425 -28 6 C-28 4.68 -28 3.36 -28 2 C-19.62481177 -3.28959256 -9.39790189 -0.90426547 0 0 Z M504 41 C504.33 42.98 504.66 44.96 505 47 C505.99 47.33 506.98 47.66 508 48 C507.43628586 44.73045798 506.50037734 43.17424117 504 41 Z M506 52 C506.99 53.485 506.99 53.485 508 55 C508 54.01 508 53.02 508 52 C507.34 52 506.68 52 506 52 Z M482 61 C482.33 61.99 482.66 62.98 483 64 C483.99 64 484.98 64 486 64 C485.67 63.01 485.34 62.02 485 61 C484.01 61 483.02 61 482 61 Z M514 66 C514 69 514 69 514 69 Z M34 74 C34.66 75.32 35.32 76.64 36 78 C36 76.68 36 75.36 36 74 C35.34 74 34.68 74 34 74 Z M513 79 C512.67 79.66 512.34 80.32 512 81 C512.66 81 513.32 81 514 81 C513.67 80.34 513.34 79.68 513 79 Z M46 82 C46 82.99 46 83.98 46 85 C46.99 84.67 47.98 84.34 49 84 C48.01 83.34 47.02 82.68 46 82 Z M61 107 C61.33 107.66 61.66 108.32 62 109 C62.99 108.67 63.98 108.34 65 108 C63.68 107.67 62.36 107.34 61 107 Z M58 113 C59 116 59 116 59 116 Z M390 138 C390.33 138.99 390.66 139.98 391 141 C391.33 140.01 391.66 139.02 392 138 C391.34 138 390.68 138 390 138 Z M442 139 C443 141 443 141 443 141 Z M443 141 C443.66 141.66 444.32 142.32 445 143 C445 142.34 445 141.68 445 141 C444.34 141 443.68 141 443 141 Z M385 143 C385 143.66 385 144.32 385 145 C385.66 145 386.32 145 387 145 C387 144.34 387 143.68 387 143 C386.34 143 385.68 143 385 143 Z M447 143 C446.67 143.66 446.34 144.32 446 145 C447.32 144.67 448.64 144.34 450 144 C449.01 143.67 448.02 143.34 447 143 Z M358 156 C358 157.32 358 158.64 358 160 C358.99 160 359.98 160 361 160 C361.33 158.68 361.66 157.36 362 156 C360.68 156 359.36 156 358 156 Z M371 166 C371 169 371 169 371 169 Z " fill="#292B2A" transform="translate(241,607)"/>
<path d="M0 0 C1.07725342 0.00447144 1.07725342 0.00447144 2.17626953 0.0090332 C2.96388672 0.00967773 3.75150391 0.01032227 4.56298828 0.01098633 C5.38669922 0.02709961 6.21041016 0.04321289 7.05908203 0.05981445 C8.28304687 0.05498047 8.28304687 0.05498047 9.53173828 0.05004883 C13.66308983 0.08711642 16.5702245 0.18492868 20.18408203 2.37231445 C21.60595703 4.32543945 21.60595703 4.32543945 22.93408203 6.62231445 C28.69009393 15.63235318 38.1542577 20.36336715 48.18408203 23.37231445 C47.85408203 24.36231445 47.52408203 25.35231445 47.18408203 26.37231445 C43.62158203 27.55981445 43.62158203 27.55981445 40.18408203 28.37231445 C41.17408203 30.02231445 42.16408203 31.67231445 43.18408203 33.37231445 C43.61720703 32.62981445 44.05033203 31.88731445 44.49658203 31.12231445 C45.33189453 29.76106445 45.33189453 29.76106445 46.18408203 28.37231445 C46.56564453 27.64786133 46.94720703 26.9234082 47.34033203 26.17700195 C49.18408203 24.37231445 49.18408203 24.37231445 52.41455078 24.27075195 C53.72037109 24.42801758 55.02619141 24.5852832 56.37158203 24.74731445 C68.34699965 25.87934638 80.98508132 25.54412173 91.18408203 18.37231445 C92.02970703 17.42356445 92.87533203 16.47481445 93.74658203 15.49731445 C96.18408203 13.37231445 96.18408203 13.37231445 98.05908203 13.1418457 C100.5204225 13.33084149 102.78094703 13.80475791 105.18408203 14.37231445 C106.22177734 14.55536133 107.25947266 14.7384082 108.32861328 14.92700195 C111.70119637 15.71815204 114.26034866 16.50274689 117.18408203 18.37231445 C118.60686946 21.38188662 119.10971851 24.0424788 119.59814453 27.3293457 C120.21050922 30.50955964 121.12409069 32.20913203 122.99658203 34.80981445 C124.30908203 36.6809082 124.30908203 36.6809082 125.18408203 38.37231445 C124.49658203 41.37231445 124.49658203 41.37231445 123.18408203 43.37231445 C123.68939453 43.92661133 124.19470703 44.4809082 124.71533203 45.05200195 C125.36501953 45.77645508 126.01470703 46.5009082 126.68408203 47.24731445 C127.33376953 47.96661133 127.98345703 48.6859082 128.65283203 49.42700195 C130.18408203 51.37231445 130.18408203 51.37231445 130.18408203 53.37231445 C131.17408203 53.70231445 132.16408203 54.03231445 133.18408203 54.37231445 C132.54220285 59.50734789 131.50135956 64.36665986 130.18408203 69.37231445 C126.67104684 68.76958974 123.64351973 67.84400152 120.38330078 66.41137695 C119.04041992 65.82743164 119.04041992 65.82743164 117.67041016 65.23168945 C116.74679687 64.8243457 115.82318359 64.41700195 114.87158203 63.99731445 C102.75522487 58.68838057 90.93419577 54.81608103 78.09814453 51.5090332 C76.88384766 51.17774414 75.66955078 50.84645508 74.41845703 50.50512695 C72.76668457 50.07031006 72.76668457 50.07031006 71.08154297 49.62670898 C67.64334526 48.13821388 66.28525543 46.42349299 64.18408203 43.37231445 C63.85408203 43.04231445 63.52408203 42.71231445 63.18408203 42.37231445 C63.51408203 44.02231445 63.84408203 45.67231445 64.18408203 47.37231445 C62.53777875 47.23188568 60.89204024 47.08482116 59.24658203 46.93481445 C58.33005859 46.85360352 57.41353516 46.77239258 56.46923828 46.6887207 C54.18408203 46.37231445 54.18408203 46.37231445 53.18408203 45.37231445 C53.14315266 43.03934012 53.1416648 40.70526221 53.18408203 38.37231445 C51.53408203 38.37231445 49.88408203 38.37231445 48.18408203 38.37231445 C48.18408203 37.71231445 48.18408203 37.05231445 48.18408203 36.37231445 C47.52408203 36.70231445 46.86408203 37.03231445 46.18408203 37.37231445 C46.84408203 38.15606445 47.50408203 38.93981445 48.18408203 39.74731445 C50.18408203 42.37231445 50.18408203 42.37231445 50.18408203 44.37231445 C45.57507069 44.44665335 41.12088648 44.38879444 36.53564453 43.9074707 C-31.5779936 36.81886359 -104.98694975 56.09682242 -158.8034668 99.21435547 C-164.16843622 103.59597113 -169.42931728 108.10481754 -174.65966797 112.64575195 C-175.44325684 113.32190552 -175.44325684 113.32190552 -176.24267578 114.01171875 C-177.32497884 114.94773286 -178.40218892 115.88965803 -179.47509766 116.83642578 C-183.56562162 120.37926713 -183.56562162 120.37926713 -186.06591797 120.30981445 C-187.81591797 119.37231445 -187.81591797 119.37231445 -189.81591797 117.37231445 C-190.08404297 118.25918945 -190.35216797 119.14606445 -190.62841797 120.05981445 C-191.81591797 123.37231445 -191.81591797 123.37231445 -193.37841797 125.93481445 C-194.9591117 128.23100849 -194.9591117 128.23100849 -195.05810547 130.6418457 C-196.12840028 134.49821722 -198.62839909 136.73564119 -201.37841797 139.49731445 C-206.23208854 144.52166991 -210.32625949 149.59113038 -214.19482422 155.4230957 C-214.72978516 156.06633789 -215.26474609 156.70958008 -215.81591797 157.37231445 C-216.80591797 157.37231445 -217.79591797 157.37231445 -218.81591797 157.37231445 C-218.81591797 158.69231445 -218.81591797 160.01231445 -218.81591797 161.37231445 C-219.47591797 161.37231445 -220.13591797 161.37231445 -220.81591797 161.37231445 C-221.06341797 162.05293945 -221.31091797 162.73356445 -221.56591797 163.43481445 C-223.05789705 166.94096528 -224.88427308 170.08851814 -226.81591797 173.37231445 C-227.80591797 173.37231445 -228.79591797 173.37231445 -229.81591797 173.37231445 C-229.76435547 174.10836914 -229.71279297 174.84442383 -229.65966797 175.6027832 C-229.83928458 178.7864877 -230.56103314 180.05715445 -232.31591797 182.68481445 C-235.15289295 187.16884836 -237.59505761 191.745401 -239.94091797 196.49731445 C-240.26511719 197.1538501 -240.58931641 197.81038574 -240.92333984 198.48681641 C-241.56086592 199.78175083 -242.19727539 201.07723564 -242.83251953 202.37329102 C-244.47640683 205.7149368 -246.14748678 209.04286732 -247.81591797 212.37231445 C-251.74860664 212.39705313 -255.6812651 212.4151928 -259.61401367 212.42724609 C-261.60906565 212.43474174 -263.60409582 212.44744791 -265.59912109 212.46020508 C-267.47954102 212.46503906 -267.47954102 212.46503906 -269.39794922 212.4699707 C-270.55528564 212.47520752 -271.71262207 212.48044434 -272.9050293 212.48583984 C-275.81591797 212.37231445 -275.81591797 212.37231445 -278.81591797 211.37231445 C-278.36862548 207.02860738 -275.85265918 205.38691134 -272.62841797 202.68481445 C-260.87941963 192.45315857 -252.75845172 176.75169602 -251.65576172 161.09887695 C-251.3819222 153.35993404 -253.29423668 147.20131383 -256.81591797 140.37231445 C-255.1932225 138.0789847 -253.56788158 135.78761309 -251.94091797 133.49731445 C-251.250625 132.52084961 -251.250625 132.52084961 -250.54638672 131.5246582 C-250.10166016 130.89946289 -249.65693359 130.27426758 -249.19873047 129.63012695 C-248.79025879 129.05407715 -248.38178711 128.47802734 -247.9609375 127.88452148 C-246.81591797 126.37231445 -246.81591797 126.37231445 -244.81591797 124.37231445 C-243.09752782 124.38069684 -241.37776015 124.4018549 -239.66235352 124.50341797 C-226.33014603 125.25953594 -216.1967509 120.43701883 -206.21044922 111.6496582 C-197.71825497 103.5730689 -190.34884963 94.04912941 -187.81591797 82.37231445 C-187.85004471 79.84956065 -187.95545155 77.32686312 -188.12841797 74.80981445 C-188.24195032 68.05797871 -188.24195032 68.05797871 -186.40576172 65.1027832 C-183.93366357 62.94560201 -181.88026744 61.6224075 -178.67138672 60.8684082 C-176.59416763 60.5267031 -176.59416763 60.5267031 -175.37841797 58.30981445 C-173.81591797 56.37231445 -173.81591797 56.37231445 -171.62841797 55.80981445 C-168.64727713 56.40604262 -167.73030267 57.13572316 -165.37841797 58.93481445 C-159.53559311 62.81902759 -153.43042222 61.42051458 -146.81591797 60.37231445 C-145.81173828 60.21633789 -144.80755859 60.06036133 -143.77294922 59.8996582 C-128.41320783 56.76967042 -113.74639356 47.21845425 -104.69091797 34.37231445 C-102.09752535 29.74469937 -101.45673634 24.57537706 -100.81591797 19.37231445 C-98.09172962 18.33610168 -95.36289581 17.31819508 -92.62841797 16.30981445 C-91.4750293 15.86798828 -91.4750293 15.86798828 -90.29833984 15.41723633 C-82.93256974 12.73015282 -82.93256974 12.73015282 -78.81591797 14.37231445 C-77.18310547 15.60668945 -77.18310547 15.60668945 -75.69091797 17.12231445 C-67.2616581 24.71047681 -57.62872256 26.71432835 -46.63232422 26.1965332 C-42.68845837 25.97861128 -38.75293318 25.68981568 -34.81591797 25.37231445 C-34.81591797 27.02231445 -34.81591797 28.67231445 -34.81591797 30.37231445 C-34.25904297 29.62981445 -33.70216797 28.88731445 -33.12841797 28.12231445 C-29.60659533 23.93420104 -27.02003799 21.32283763 -21.50341797 20.62231445 C-20.28654297 20.53981445 -19.06966797 20.45731445 -17.81591797 20.37231445 C-17.48591797 19.38231445 -17.15591797 18.39231445 -16.81591797 17.37231445 C-15.14404297 16.0480957 -15.14404297 16.0480957 -13.06591797 14.68481445 C-8.67293226 11.53572075 -6.38635931 8.04493844 -3.81591797 3.37231445 C-1.81591797 0.37231445 -1.81591797 0.37231445 0 0 Z M13.18408203 3.37231445 C13.51408203 4.03231445 13.84408203 4.69231445 14.18408203 5.37231445 C14.51408203 4.71231445 14.84408203 4.05231445 15.18408203 3.37231445 C14.52408203 3.37231445 13.86408203 3.37231445 13.18408203 3.37231445 Z M-0.81591797 16.37231445 C-1.49740027 18.26410649 -1.49740027 18.26410649 -1.81591797 20.37231445 C-1.15591797 21.03231445 -0.49591797 21.69231445 0.18408203 22.37231445 C0.18408203 24.18481445 0.18408203 24.18481445 -0.81591797 26.37231445 C-3.81591797 28.87231445 -3.81591797 28.87231445 -6.81591797 31.37231445 C-7.76028146 33.53762614 -7.76028146 33.53762614 -7.81591797 35.37231445 C-4.71633534 34.68019836 -4.71633534 34.68019836 -3.44091797 32.30981445 C-1.81591797 30.37231445 -1.81591797 30.37231445 0.68408203 30.12231445 C1.50908203 30.20481445 2.33408203 30.28731445 3.18408203 30.37231445 C6.54811678 30.37231445 7.5850112 29.75351392 10.37158203 27.99731445 C11.08701172 27.55645508 11.80244141 27.1155957 12.53955078 26.66137695 C13.35359375 26.02329102 13.35359375 26.02329102 14.18408203 25.37231445 C14.18408203 24.71231445 14.18408203 24.05231445 14.18408203 23.37231445 C12.20408203 23.37231445 10.22408203 23.37231445 8.18408203 23.37231445 C7.85408203 22.71231445 7.52408203 22.05231445 7.18408203 21.37231445 C5.86408203 21.37231445 4.54408203 21.37231445 3.18408203 21.37231445 C1.49658203 18.87231445 1.49658203 18.87231445 0.18408203 16.37231445 C-0.14591797 16.37231445 -0.47591797 16.37231445 -0.81591797 16.37231445 Z M-15.81591797 27.37231445 C-14.58782706 29.01787145 -14.58782706 29.01787145 -12.81591797 30.37231445 C-10.65292586 30.14473714 -10.65292586 30.14473714 -8.81591797 29.37231445 C-8.81591797 28.71231445 -8.81591797 28.05231445 -8.81591797 27.37231445 C-11.12591797 27.37231445 -13.43591797 27.37231445 -15.81591797 27.37231445 Z M69.18408203 31.37231445 C69.51408203 32.03231445 69.84408203 32.69231445 70.18408203 33.37231445 C71.50408203 33.37231445 72.82408203 33.37231445 74.18408203 33.37231445 C74.18408203 32.71231445 74.18408203 32.05231445 74.18408203 31.37231445 C72.53408203 31.37231445 70.88408203 31.37231445 69.18408203 31.37231445 Z M111.18408203 43.37231445 C111.18408203 46.37231445 111.18408203 46.37231445 111.18408203 46.37231445 Z M-146.81591797 80.37231445 C-146.15591797 81.03231445 -145.49591797 81.69231445 -144.81591797 82.37231445 C-144.81591797 81.71231445 -144.81591797 81.05231445 -144.81591797 80.37231445 C-145.47591797 80.37231445 -146.13591797 80.37231445 -146.81591797 80.37231445 Z " fill="#292B2A" transform="translate(488.81591796875,176.627685546875)"/>
<path d="M0 0 C1.02500107 -0.00043808 1.02500107 -0.00043808 2.07070923 -0.00088501 C4.32168425 0.00050454 6.57232523 0.01604776 8.82324219 0.03173828 C10.38694071 0.03546975 11.95064157 0.03831609 13.51434326 0.04031372 C17.62433357 0.04793964 21.73418189 0.06757914 25.84411621 0.08972168 C30.04026367 0.11020256 34.23643413 0.11932023 38.43261719 0.12939453 C46.66184892 0.15082606 54.89096537 0.18494939 63.12011719 0.22705078 C64.11011719 2.20705078 64.11011719 2.20705078 65.12011719 4.22705078 C65.559066 3.57766312 65.99801482 2.92827547 66.45026511 2.25920939 C70.62074395 -0.91515168 74.73151575 -0.32785445 79.83775043 -0.28748703 C80.94784177 -0.29449918 82.05793311 -0.30151133 83.20166358 -0.30873597 C86.95408068 -0.3274736 90.70588441 -0.3174897 94.45832825 -0.30780029 C97.16268162 -0.31526738 99.86698824 -0.3243076 102.57132548 -0.33526158 C108.46791713 -0.35590544 114.36437739 -0.36154163 120.26100159 -0.35743713 C129.02945086 -0.35134847 137.79775423 -0.36795975 146.56617517 -0.38893564 C163.13627899 -0.427666 179.7063334 -0.43887395 196.27647714 -0.44116387 C209.07047768 -0.4430004 221.86445877 -0.45122519 234.65845299 -0.46396637 C238.33810111 -0.46755642 242.01774925 -0.47111567 245.69739741 -0.47466588 C246.61210917 -0.47555007 247.52682093 -0.47643427 248.46925123 -0.47734525 C274.20659712 -0.50197008 299.94393625 -0.51774669 325.68129444 -0.51597214 C327.13751805 -0.51587867 327.13751805 -0.51587867 328.62316031 -0.5157833 C333.5439176 -0.51545086 338.46467488 -0.5150547 343.38543216 -0.51464447 C344.36275284 -0.51456469 345.34007352 -0.51448491 346.34700998 -0.51440271 C348.32339149 -0.51424097 350.29977299 -0.51407377 352.27615449 -0.51390115 C383.03028863 -0.51144974 413.78424641 -0.5414802 444.53833008 -0.59619141 C479.07175948 -0.65760037 513.605073 -0.69205838 548.13856047 -0.68833852 C551.81915168 -0.68803998 555.49974288 -0.68784516 559.18033409 -0.68772125 C560.53976722 -0.68765133 560.53976722 -0.68765133 561.92666365 -0.68757999 C576.52722692 -0.68745677 591.12763742 -0.71302764 605.72815524 -0.74745031 C620.39585352 -0.78131672 635.06332768 -0.78534751 649.73104338 -0.75901303 C658.45034843 -0.74420335 667.16897377 -0.75164026 675.88820716 -0.79078239 C681.70904933 -0.81471014 687.52939712 -0.80968184 693.35021623 -0.78090039 C696.66967816 -0.76530967 699.98674128 -0.76682593 703.30628488 -0.7947298 C706.88040152 -0.82279364 710.45096828 -0.80195084 714.02496052 -0.7685051 C715.05787864 -0.78837782 716.09079677 -0.80825053 717.15501544 -0.82872546 C721.23023211 -0.74763636 724.0025178 -0.66730736 727.25290491 1.93381271 C729.04968512 3.95342144 730.59943849 5.99439124 732.12011719 8.22705078 C732.67686952 8.9321737 733.23362186 9.63729661 733.80724548 10.36378689 C735.12011719 12.22705078 735.12011719 12.22705078 735.12011719 14.22705078 C724.05584475 16.44742537 713.26972346 16.50524248 702.03222656 16.4699707 C700.03172239 16.47104559 698.03121853 16.47298734 696.03071594 16.47572327 C690.63199355 16.4805417 685.23335471 16.47295335 679.83464241 16.46277022 C674.16462435 16.45393798 668.4946085 16.45574818 662.82458496 16.45613098 C653.30573136 16.45519652 643.78690978 16.44654247 634.26806641 16.43286133 C623.28845397 16.41713821 612.30887656 16.41186339 601.32925367 16.41259688 C589.60305746 16.41327426 577.87687461 16.40632266 566.15068245 16.39715028 C562.78792901 16.39502683 559.42517775 16.39431017 556.06242371 16.39391136 C550.76326929 16.39290097 545.46414384 16.3867479 540.16499901 16.37674522 C538.22893133 16.37384421 536.29286031 16.37258994 534.35679054 16.37317276 C517.91906274 16.37624647 517.91906274 16.37624647 510.42712402 15.6554718 C505.72878946 15.22674394 501.20572323 15.34286736 496.51297855 15.69402027 C486.51453985 16.35457561 476.54365511 16.35438945 466.52732849 16.32711792 C464.49720624 16.32540203 462.46708356 16.32414174 460.43696076 16.32329285 C454.90403138 16.31973373 449.37112832 16.30995482 443.83820903 16.29913926 C437.85398094 16.28859369 431.86974801 16.28401254 425.88551331 16.27880859 C416.201258 16.26975371 406.51700999 16.25804733 396.83276066 16.2439992 C380.49072259 16.22032419 364.14868658 16.20607998 347.8066357 16.19483256 C341.50836128 16.19046478 335.21008704 16.18582779 328.91181278 16.18123055 C328.21227333 16.18072202 327.51273388 16.18021349 326.79199627 16.17968955 C310.17016703 16.16757666 293.54834007 16.15320521 276.92651367 16.13769531 C276.19989589 16.13702015 275.47327811 16.13634499 274.72464161 16.13564936 C257.75772825 16.11984463 240.79081939 16.10190275 223.82391357 16.0793457 C223.09317947 16.07837443 222.36244536 16.07740316 221.6095678 16.07640246 C215.71823577 16.06855453 209.82690384 16.06063314 203.93557193 16.0526922 C179.64777979 16.020014 155.35999574 15.99740319 131.07218376 15.98639782 C127.64357698 15.98483317 124.21497028 15.98313878 120.7863636 15.98135757 C119.77429283 15.98083442 119.77429283 15.98083442 118.74177619 15.9803007 C107.88660814 15.97436425 97.03148271 15.95756904 86.17633456 15.93651588 C75.27528704 15.91556209 64.37427395 15.90553678 53.47320616 15.90605985 C47.56839965 15.90599672 41.6637037 15.90098273 35.75892258 15.88289261 C30.35527742 15.86643414 24.95180872 15.86377211 19.54814661 15.87214138 C17.59226141 15.87271603 15.63636675 15.86819004 13.68050759 15.85808001 C11.02329606 15.84508028 8.36673486 15.85059534 5.70952511 15.86070061 C4.94927136 15.85253372 4.18901761 15.84436683 3.40572587 15.83595246 C-1.9680294 15.88462909 -5.91328908 17.18056374 -10.87988281 19.22705078 C-14.06738281 19.73876953 -14.06738281 19.73876953 -16.87988281 19.91455078 C-18.30300781 20.01316406 -18.30300781 20.01316406 -19.75488281 20.11376953 C-20.45613281 20.15115234 -21.15738281 20.18853516 -21.87988281 20.22705078 C-20.83352682 13.77831333 -18.06230829 8.30301648 -13.31738281 3.78955078 C-8.59432611 0.76195033 -5.72411443 -0.02059034 0 0 Z M58.12011719 6.22705078 C58.45011719 6.88705078 58.78011719 7.54705078 59.12011719 8.22705078 C59.45011719 7.56705078 59.78011719 6.90705078 60.12011719 6.22705078 C59.46011719 6.22705078 58.80011719 6.22705078 58.12011719 6.22705078 Z " fill="#2A2C2B" transform="translate(139.8798828125,405.77294921875)"/>
<path d="M0 0 C-0.3125 1.9375 -0.3125 1.9375 -1 4 C-2.485 4.495 -2.485 4.495 -4 5 C-4.80563638 7.10584438 -4.80563638 7.10584438 -5.1875 9.5625 C-5.34605469 10.38878906 -5.50460937 11.21507812 -5.66796875 12.06640625 C-5.77753906 12.70449219 -5.88710938 13.34257813 -6 14 C-8.97 14.495 -8.97 14.495 -12 15 C-12.33 15.99 -12.66 16.98 -13 18 C-26.2 18 -39.4 18 -53 18 C-53 17.34 -53 16.68 -53 16 C-53.99 16 -54.98 16 -56 16 C-56 16.66 -56 17.32 -56 18 C-84.89339148 18.02333501 -113.78678155 18.04098215 -142.68018055 18.05181217 C-145.34806634 18.05283869 -148.01595212 18.05387337 -150.68383789 18.05493164 C-151.34696744 18.05519395 -152.01009699 18.05545626 -152.69332137 18.05572652 C-163.43866448 18.06008097 -174.18400225 18.06796729 -184.92934219 18.0771528 C-195.95036735 18.08649558 -206.97138955 18.09198206 -217.99241847 18.09408849 C-224.18472263 18.09539493 -230.37701467 18.09847659 -236.56931496 18.10573006 C-242.39273334 18.11249643 -248.21613457 18.11461569 -254.0395565 18.11310768 C-256.18138599 18.11338373 -258.32321602 18.1153852 -260.46504211 18.11920547 C-263.38046875 18.12415231 -266.29582991 18.12299457 -269.21125793 18.12025452 C-270.06630993 18.12316736 -270.92136193 18.1260802 -271.80232459 18.12908131 C-275.12409037 18.12059432 -277.82622 18.05792667 -281 17 C-282.56960149 16.9081322 -284.14280092 16.8720946 -285.71508789 16.87060547 C-286.66940201 16.86745331 -287.62371613 16.86430115 -288.60694885 16.86105347 C-290.14922401 16.86408981 -290.14922401 16.86408981 -291.72265625 16.8671875 C-292.77907822 16.86623077 -293.83550018 16.86527405 -294.92393494 16.86428833 C-297.15737976 16.86360768 -299.39082656 16.86545395 -301.62426758 16.86962891 C-305.05229102 16.87498405 -308.48018374 16.86967727 -311.90820312 16.86328125 C-314.07552112 16.86394195 -316.24283904 16.86522294 -318.41015625 16.8671875 C-319.44036392 16.86516327 -320.47057159 16.86313904 -321.53199768 16.86105347 C-322.48315964 16.86420563 -323.43432159 16.86735779 -324.41430664 16.87060547 C-325.25353165 16.87140106 -326.09275665 16.87219666 -326.95741272 16.87301636 C-329.06688113 16.87058463 -329.06688113 16.87058463 -331 18 C-332.73790254 18.09533008 -334.47948618 18.126304 -336.22000122 18.12698364 C-337.32712463 18.12980347 -338.43424805 18.13262329 -339.57492065 18.13552856 C-340.79559235 18.13350433 -342.01626404 18.1314801 -343.27392578 18.12939453 C-344.55549561 18.13114685 -345.83706543 18.13289917 -347.1574707 18.13470459 C-350.68311708 18.1392771 -354.20873429 18.13748843 -357.7343812 18.1343255 C-361.43448369 18.13179342 -365.13458369 18.13414252 -368.83468628 18.13571167 C-375.0641118 18.13753407 -381.29352549 18.13512855 -387.52294922 18.13037109 C-394.687904 18.12496173 -401.85283018 18.12666643 -409.01778424 18.1321975 C-415.1870282 18.13676679 -421.35626365 18.13735967 -427.52550876 18.13475883 C-431.20140923 18.13321258 -434.87729638 18.13295565 -438.55319595 18.13629532 C-466.55174687 18.15856205 -466.55174687 18.15856205 -477.80172729 17.11642456 C-481.06349759 16.90562659 -481.06349759 16.90562659 -484.5204792 17.48520756 C-489.63963448 18.15398191 -494.71472019 18.13539033 -499.87060547 18.12025452 C-500.94324803 18.12110894 -502.0158906 18.12196337 -503.12103748 18.12284368 C-506.70310466 18.12448636 -510.28512466 18.11899697 -513.8671875 18.11352539 C-516.43976338 18.11324323 -519.01233933 18.11340181 -521.58491516 18.1139679 C-527.11727382 18.11449115 -532.64962064 18.11136513 -538.18197632 18.10573006 C-546.18074146 18.0975881 -554.17950091 18.09499707 -562.17826974 18.09374207 C-575.15709843 18.09155578 -588.13592082 18.08490718 -601.11474609 18.07543945 C-613.71923796 18.06625438 -626.32372812 18.0591789 -638.92822266 18.05493164 C-639.70572671 18.05466892 -640.48323077 18.05440619 -641.28429556 18.05413551 C-645.18497307 18.05283043 -649.08565059 18.05156673 -652.98632812 18.05032361 C-685.32422333 18.03996418 -717.66211079 18.02235739 -750 18 C-748.64906452 12.19311154 -746.14448619 7.33003206 -742 3 C-737.87902616 1.4997556 -734.05741381 1.68380914 -729.71484375 1.890625 C-728.540392 1.90381775 -727.36594025 1.9170105 -726.15589905 1.93060303 C-722.41336591 1.98538583 -718.67798961 2.11709042 -714.9375 2.25 C-712.41870677 2.29662933 -709.89981755 2.33834871 -707.38085938 2.375 C-689.83776648 2.68959325 -689.83776648 2.68959325 -684.49047852 3.59277344 C-682.10022086 4.15530702 -682.10022086 4.15530702 -680.19259644 3.53353882 C-677.54550252 2.88940416 -675.15296447 2.87281258 -672.42797852 2.87060547 C-671.30903702 2.86745331 -670.19009552 2.86430115 -669.0372467 2.86105347 C-667.82999435 2.8630777 -666.622742 2.86510193 -665.37890625 2.8671875 C-663.50258766 2.86575241 -663.50258766 2.86575241 -661.58836365 2.86428833 C-658.93623413 2.86360738 -656.28419648 2.8649528 -653.63208008 2.86962891 C-650.93511751 2.8741574 -648.2382222 2.87422689 -645.54125977 2.86962891 C-641.63295523 2.86339059 -637.72471362 2.86421869 -633.81640625 2.8671875 C-632.62737198 2.86516327 -631.43833771 2.86313904 -630.21327209 2.86105347 C-623.43437921 2.87967802 -616.74542091 3.16878852 -609.99278259 3.77371216 C-602.78901941 4.31839724 -595.61902187 4.19146012 -588.4324007 3.49970341 C-578.8250296 2.73908829 -569.212235 2.86528442 -559.58158875 2.87974548 C-557.41309831 2.87930892 -555.24460792 2.87843244 -553.07611781 2.87715632 C-547.14245948 2.87492813 -541.20881931 2.87890965 -535.27516329 2.88393438 C-528.86701562 2.88826281 -522.45886894 2.88679076 -516.05072021 2.8860321 C-504.95649152 2.88550839 -493.8622688 2.88860427 -482.76804161 2.89426994 C-471.13716288 2.90019441 -459.5062865 2.90403739 -447.87540627 2.90512276 C-447.15124051 2.9051915 -446.42707476 2.90526024 -445.6809646 2.90533106 C-442.00303757 2.90566941 -438.32511054 2.90597079 -434.64718352 2.90625793 C-408.62131411 2.90835629 -382.59544776 2.91508792 -356.56958008 2.92456055 C-331.29158545 2.93375033 -306.01359167 2.94083132 -280.7355957 2.94506836 C-279.9559143 2.94519989 -279.1762329 2.94533141 -278.37292479 2.94546692 C-270.54278169 2.94678549 -262.71263859 2.94806129 -254.88249548 2.94930578 C-238.93271606 2.95184175 -222.98293669 2.954663 -207.03315735 2.95765686 C-205.93322844 2.9578628 -205.93322844 2.9578628 -204.81107875 2.95807289 C-155.8740512 2.96726785 -106.93702545 2.98313323 -58 3 C-57.67 3.99 -57.34 4.98 -57 6 C-56.67 5.01 -56.34 4.02 -56 3 C-54.35 3 -52.7 3 -51 3 C-50.67 3.99 -50.34 4.98 -50 6 C-49.67 5.01 -49.34 4.02 -49 3 C-36.13 2.67 -23.26 2.34 -10 2 C-9.67 1.34 -9.34 0.68 -9 0 C-5.65506316 -0.99444068 -3.31044803 -1.10348268 0 0 Z M-53 8 C-53.33 8.66 -53.66 9.32 -54 10 C-53.34 10.66 -52.68 11.32 -52 12 C-51.67 10.68 -51.34 9.36 -51 8 C-51.66 8 -52.32 8 -53 8 Z " fill="#292C2B" transform="translate(877,571)"/>
<path d="M0 0 C1.33417969 0.00386719 1.33417969 0.00386719 2.6953125 0.0078125 C4.02175781 0.00394531 4.02175781 0.00394531 5.375 0 C7.8203125 0.1328125 7.8203125 0.1328125 10.8203125 1.1328125 C12.30797493 3.67498263 13.64379007 6.18520485 14.9453125 8.8203125 C30.88376071 39.89361702 54.62190389 68.50181951 82.8203125 89.1328125 C83.94815096 89.97885442 85.07575431 90.82520986 86.203125 91.671875 C128.07163022 122.73753852 179.53219079 139.63576079 231.5703125 139.5078125 C232.41248322 139.50726868 233.25465393 139.50672485 234.12234497 139.50616455 C289.80294474 139.34231905 345.31534445 120.32633977 388.24658203 84.44628906 C389.84113194 83.11543605 391.45226288 81.80698693 393.06640625 80.5 C406.22767204 69.73509836 417.72344769 57.80597141 427.8203125 44.1328125 C428.23732422 43.57658203 428.65433594 43.02035156 429.08398438 42.44726562 C434.29173059 35.48464705 439.0438874 28.30614967 443.5703125 20.8828125 C444.03791992 20.11614258 444.50552734 19.34947266 444.98730469 18.55957031 C446.92955927 15.34935855 448.81762383 12.13778889 450.6015625 8.8359375 C454.05805954 2.4745121 454.05805954 2.4745121 458.4453125 0.5078125 C461.8203125 0.1328125 461.8203125 0.1328125 465.8203125 0.1328125 C467.47630401 7.50126518 466.23276758 11.81708028 462.5078125 18.2578125 C462.05212891 19.08039551 461.59644531 19.90297852 461.12695312 20.75048828 C454.07368521 33.28289383 445.85654877 44.96006246 436.8203125 56.1328125 C436.39089355 56.66664551 435.96147461 57.20047852 435.51904297 57.75048828 C423.52918771 72.52724627 409.99025887 86.61191526 394.8203125 98.1328125 C393.34111328 99.32003906 393.34111328 99.32003906 391.83203125 100.53125 C383.58599128 107.11610719 374.86547747 112.71483853 365.8203125 118.1328125 C365.24200684 118.48585449 364.66370117 118.83889648 364.06787109 119.20263672 C325.64148065 142.62625202 279.65339485 154.33714942 234.8203125 154.3828125 C234.12699829 154.38381958 233.43368408 154.38482666 232.71936035 154.38586426 C169.56576806 154.32451856 108.33440123 131.77715035 60.8203125 90.1328125 C60.00433594 89.42898438 59.18835938 88.72515625 58.34765625 88 C46.99902082 78.03442031 35.74880267 67.34984962 26.8203125 55.1328125 C26.34529297 54.49649902 25.87027344 53.86018555 25.38085938 53.20458984 C15.91100369 40.51578867 7.50382173 27.58697132 0.2578125 13.5078125 C-0.08934814 12.84442871 -0.43650879 12.18104492 -0.79418945 11.49755859 C-2.58056954 7.92479841 -3.70957842 5.14804227 -3.1796875 1.1328125 C-2.1796875 0.1328125 -2.1796875 0.1328125 0 0 Z " fill="#292B2A" transform="translate(265.1796875,604.8671875)"/>
<path d="M0 0 C0.96711914 0.24733887 1.93423828 0.49467773 2.93066406 0.74951172 C24.69633806 6.42426109 45.52667444 14.70780447 65 26 C65.64807617 26.37560059 66.29615234 26.75120117 66.96386719 27.13818359 C83.18496719 36.66697185 98.58846155 47.78720553 112 61 C112.75990234 61.74088867 113.51980469 62.48177734 114.30273438 63.24511719 C133.432422 81.92907871 133.432422 81.92907871 141 92 C141.93350365 93.1833912 142.86851756 94.36559195 143.8046875 95.546875 C151.07658004 104.84185433 157.1324096 114.5792575 162.83398438 124.90283203 C163.86059812 126.7492751 164.92000242 128.57740572 165.984375 130.40234375 C168.81440641 135.31446969 170.87544085 139.27027913 171 145 C169.37339402 146.62660598 167.61976808 146.40312825 165.375 146.5625 C162.42683461 146.49977308 160.59280532 146.38100218 158.09765625 144.77734375 C153.0508955 139.37434107 149.77635065 132.47043258 146.25 126.02734375 C132.6087131 101.29960141 112.22600454 78.31124016 90 61 C89.06414062 60.23558594 88.12828125 59.47117187 87.1640625 58.68359375 C46.18762217 25.87084012 -6.694403 7.5391544 -59 6 C-60.26585937 5.95875 -61.53171875 5.9175 -62.8359375 5.875 C-117.61368695 4.98611157 -171.54869592 24.09687456 -215 57 C-215.53061035 57.39912598 -216.0612207 57.79825195 -216.60791016 58.20947266 C-228.6948597 67.34005265 -240.42836632 77.19827435 -250 89 C-250.99554755 90.19576746 -251.99170515 91.39102712 -252.98828125 92.5859375 C-260.69321039 101.88218787 -267.84618316 111.36033176 -274.26953125 121.6015625 C-285.27726366 139.13863183 -285.27726366 139.13863183 -291 142 C-294.5625 142.125 -294.5625 142.125 -298 142 C-299 141 -299 141 -299.34375 138.4765625 C-298.87275744 133.71311505 -296.89242175 130.45883239 -294.5 126.375 C-294.04149658 125.57521729 -293.58299316 124.77543457 -293.1105957 123.95141602 C-283.51099224 107.37210434 -272.04516309 92.02290707 -259 78 C-257.80778787 76.6290837 -256.62008001 75.25423376 -255.4375 73.875 C-249.45975105 67.0295133 -242.92343555 60.87406465 -236 55 C-235.11570312 54.23816406 -234.23140625 53.47632813 -233.3203125 52.69140625 C-221.34698669 42.51249133 -208.66528836 33.75486259 -195 26 C-194.36288086 25.63551758 -193.72576172 25.27103516 -193.06933594 24.89550781 C-135.00554386 -8.0140852 -64.49710193 -16.68798328 0 0 Z " fill="#292B2A" transform="translate(563,244)"/>
<path d="M0 0 C4.88100993 0.9447116 9.60483082 2.17120065 14.375 3.5625 C19.88509843 5.10563931 25.29979699 5.68025941 31 6 C31 6.99 31 7.98 31 9 C31.66 9 32.32 9 33 9 C33 8.01 33 7.02 33 6 C34.24735567 5.3490741 35.49801832 4.70448331 36.75 4.0625 C37.44609375 3.70285156 38.1421875 3.34320313 38.859375 2.97265625 C39.91898438 2.49119141 39.91898438 2.49119141 41 2 C41.60972656 1.70351562 42.21945312 1.40703125 42.84765625 1.1015625 C46.45557277 0.93131599 48.90373712 3.26244207 51.6875 5.3125 C52.57791992 5.93801758 52.57791992 5.93801758 53.48632812 6.57617188 C57.84682786 9.69365572 57.84682786 9.69365572 59 12 C59.02019238 13.87500701 58.99206886 15.75067845 58.9375 17.625 C58.90083557 22.02473138 59.17968029 25.77084613 60.421875 29.9765625 C61.54847127 33.91964944 62.22480527 37.97558483 63 42 C63.99 42 64.98 42 66 42 C67.38671875 43.42578125 67.38671875 43.42578125 68.6875 45.3125 C69.12449219 45.92738281 69.56148437 46.54226563 70.01171875 47.17578125 C71 49 71 49 71 52 C71.99 52 72.98 52 74 52 C74 52.66 74 53.32 74 54 C74.598125 54.226875 75.19625 54.45375 75.8125 54.6875 C78.65517943 56.39310766 79.60915375 58.00968056 81 61 C81.1875 63.8125 81.1875 63.8125 81 66 C81.66 66 82.32 66 83 66 C83 64.68 83 63.36 83 62 C86.83389204 63.43770951 90.41563869 65.19830545 94.03515625 67.09765625 C98.17877863 69.00059217 102.22541104 69.24577877 106.75 69.5625 C108.50570312 69.68818359 108.50570312 69.68818359 110.296875 69.81640625 C111.18890625 69.87699219 112.0809375 69.93757813 113 70 C113 70.66 113 71.32 113 72 C114.485 72.495 114.485 72.495 116 73 C116 74.65 116 76.3 116 78 C116.721875 77.7525 117.44375 77.505 118.1875 77.25 C121 77 121 77 123.6875 78.75 C126 81 126 81 128 84 C127.7138929 88.86382075 125.31962565 93.7634007 123 98 C122.01 98.495 122.01 98.495 121 99 C121.66 99.33 122.32 99.66 123 100 C123.30992835 102.00604307 123.60693662 104.01501492 123.83520508 106.03198242 C125.94900832 124.48991893 134.49026068 139.36318906 149 151 C149.66 151.33 150.32 151.66 151 152 C151 152.99 151 153.98 151 155 C144.79099559 157.02743001 139.72948414 157.40271077 133.1875 156.4375 C130.11040295 155.70951356 130.11040295 155.70951356 128 157 C125.3276379 157.13415472 122.67749512 157.04318541 120 157 C119.52691406 156.04222656 119.05382812 155.08445312 118.56640625 154.09765625 C101.78137753 120.23508677 81.65193028 84.15781522 51.328125 60.3671875 C50 59 50 59 50 56 C49.40687012 55.88301758 48.81374023 55.76603516 48.20263672 55.64550781 C44.61209752 54.59325935 41.98484885 52.07552465 39.125 49.75 C38.52558594 49.27175781 37.92617188 48.79351562 37.30859375 48.30078125 C35.53044326 46.87748942 33.76432033 45.4403828 32 44 C31.4234668 43.53658203 30.84693359 43.07316406 30.25292969 42.59570312 C26.11585136 39.23170272 26.11585136 39.23170272 25 37 C24.33484375 36.73832031 23.6696875 36.47664063 22.984375 36.20703125 C18.77571117 34.50483606 15.0915924 32.09009059 11.25 29.6875 C5.88288271 26.3444227 0.49379961 23.10814844 -5.06347656 20.08911133 C-6.75538637 19.13757204 -8.38488218 18.07674521 -10 17 C-9.47154423 12.47509746 -7.72491323 9.8507782 -5 6.25 C-4.278125 5.28578125 -3.55625 4.3215625 -2.8125 3.328125 C-1 1 -1 1 0 0 Z M-1 10 C-1.33 11.32 -1.66 12.64 -2 14 C-1.34 14 -0.68 14 0 14 C-0.33 12.68 -0.66 11.36 -1 10 Z M46 22 C46.639375 22.268125 47.27875 22.53625 47.9375 22.8125 C50 24 50 24 51 27 C51.33 27 51.66 27 52 27 C52 25.35 52 23.7 52 22 C50.02 22 48.04 22 46 22 Z M54 36 C55 38 55 38 55 38 Z M91 80 C92 82 92 82 92 82 Z M117 112 C116.67 112.66 116.34 113.32 116 114 C116.66 114 117.32 114 118 114 C117.67 113.34 117.34 112.68 117 112 Z " fill="#292B2A" transform="translate(634,232)"/>
<path d="M0 0 C0 0.66 0 1.32 0 2 C1.65 2.33 3.3 2.66 5 3 C5.33 3.99 5.66 4.98 6 6 C6.99 6 7.98 6 9 6 C9.26554688 6.56589844 9.53109375 7.13179688 9.8046875 7.71484375 C10.15789062 8.44832031 10.51109375 9.18179687 10.875 9.9375 C11.39707031 11.03384766 11.39707031 11.03384766 11.9296875 12.15234375 C12.8684977 14.16332459 12.8684977 14.16332459 15 15 C15 15.99 15 16.98 15 18 C-6.75852955 18.02342456 -28.51705699 18.04102594 -50.27559662 18.05181217 C-60.37986169 18.0569549 -70.48411889 18.06395879 -80.58837891 18.07543945 C-89.40159088 18.08544838 -98.21479716 18.09186813 -107.02801466 18.09408849 C-111.688753 18.09538511 -116.34947504 18.09840387 -121.01020813 18.10573006 C-125.40962245 18.11258853 -129.80901399 18.11459727 -134.20843315 18.11310768 C-135.81104596 18.11337964 -137.41365964 18.11532585 -139.01626778 18.11920547 C-149.38451108 18.1430441 -159.6595938 17.76820967 -170 17 C-168.16597138 12.92105188 -165.88429717 11.13983775 -162.25 8.5 C-161.22390625 7.7471875 -160.1978125 6.994375 -159.140625 6.21875 C-150.60907022 0.19148244 -150.60907022 0.19148244 -146 -2 C-144.92492187 -2.57234375 -143.84984375 -3.1446875 -142.7421875 -3.734375 C-101.44601862 -25.44334285 -39.16862769 -29.66946444 0 0 Z M-73 -1 C-74.39261878 1.67221575 -74.39261878 1.67221575 -75 5 C-73.05640892 8.8151973 -72.11735318 10.62754894 -68 12 C-67.34 10.35 -66.68 8.7 -66 7 C-65.236875 7.309375 -64.47375 7.61875 -63.6875 7.9375 C-61.81210323 8.67893593 -59.91315348 9.36228217 -58 10 C-58.5181036 8.0351761 -58.5181036 8.0351761 -60 6 C-61.155 5.505 -62.31 5.01 -63.5 4.5 C-67 3 -67 3 -68.4375 0.8125 C-68.623125 0.214375 -68.80875 -0.38375 -69 -1 C-70.32 -1 -71.64 -1 -73 -1 Z " fill="#2A2B2A" transform="translate(573,372)"/>
<path d="M0 0 C52.8 0 105.6 0 160 0 C157.75285769 4.49428463 155.09553783 6.48888642 151.125 9.3125 C150.45605713 9.79452881 149.78711426 10.27655762 149.09790039 10.77319336 C135.2946617 20.58813735 135.2946617 20.58813735 128.16015625 22.93359375 C125.62318626 23.78970352 123.5132101 24.71088626 121.15625 25.93359375 C117.04806187 28.03738364 112.87857764 29.61684825 108.5 31.0625 C107.725354 31.31926514 106.95070801 31.57603027 106.15258789 31.84057617 C98.5400541 34.28046105 90.89471668 35.81269132 83 37 C82.15050781 37.13148438 81.30101562 37.26296875 80.42578125 37.3984375 C74.41896681 38.1964703 68.01290151 38.75838397 62 38 C61 37 60 36 59 35 C56.82680472 35.11815397 56.82680472 35.11815397 54.5 35.875 C45.55085588 37.98221126 36.83254039 35.97343093 28 34 C28 33.34 28 32.68 28 32 C26.27910156 32.09087891 26.27910156 32.09087891 24.5234375 32.18359375 C19.76180147 32.18254447 15.98854875 30.85130938 11.625 29.0625 C10.91472656 28.78470703 10.20445312 28.50691406 9.47265625 28.22070312 C2.17334244 25.34668488 2.17334244 25.34668488 0 21 C-0.66 20.67 -1.32 20.34 -2 20 C-2 18.35 -2 16.7 -2 15 C-1.34 15 -0.68 15 0 15 C0.33 13.02 0.66 11.04 1 9 C1.66 9 2.32 9 3 9 C3 7.02 3 5.04 3 3 C2.01 2.67 1.02 2.34 0 2 C0 1.34 0 0.68 0 0 Z M10 2 C10 2.66 10 3.32 10 4 C11.65 3.67 13.3 3.34 15 3 C15 2.67 15 2.34 15 2 C13.35 2 11.7 2 10 2 Z M115 3 C114.67 3.66 114.34 4.32 114 5 C114.99 4.67 115.98 4.34 117 4 C116.34 3.67 115.68 3.34 115 3 Z M108 4 C107.34 5.65 106.68 7.3 106 9 C106.99 9 107.98 9 109 9 C109.33 9.66 109.66 10.32 110 11 C110.33 10.01 110.66 9.02 111 8 C109.62831762 5.80961577 109.62831762 5.80961577 108 4 Z M119 4 C119 4.33 119 4.66 119 5 C120.65 5 122.3 5 124 5 C124 4.67 124 4.34 124 4 C122.35 4 120.7 4 119 4 Z M105 9 C104.67 9.66 104.34 10.32 104 11 C104.66 11 105.32 11 106 11 C105.67 10.34 105.34 9.68 105 9 Z M117 11 C118 13 118 13 118 13 Z M124 11 C123.67 11.66 123.34 12.32 123 13 C123.66 13 124.32 13 125 13 C124.67 12.34 124.34 11.68 124 11 Z M114 18 C115 20 115 20 115 20 Z " fill="#292C2B" transform="translate(435,605)"/>
<path d="M0 0 C5.5040293 -0.18721188 9.76585677 -0.21734185 14.37109375 3.15234375 C17.7870716 7.6797076 19.7482499 12.24324859 21.62109375 17.52734375 C21.88921875 18.26339844 22.15734375 18.99945313 22.43359375 19.7578125 C23.08654139 21.5534185 23.72983058 23.3525318 24.37109375 25.15234375 C25.11619896 22.44982906 25.52622572 19.9468491 25.65234375 17.1484375 C25.68972656 16.40787109 25.72710937 15.66730469 25.765625 14.90429688 C25.83611514 13.35742996 25.90642675 11.8105549 25.9765625 10.26367188 C26.14050358 7.02159561 26.33909656 4.24833532 27.37109375 1.15234375 C32.88229011 -1.60325443 41.45208357 -0.00572346 47.37109375 1.15234375 C48.37109375 2.15234375 48.37109375 2.15234375 48.50390625 4.56640625 C48.49016014 10.21605561 48.35298694 15.80605939 47.890625 21.4375 C47.39333395 28.59955295 47.22701487 35.74400593 47.125 42.921875 C47.1083429 44.05820374 47.09168579 45.19453247 47.07452393 46.36529541 C47.00772475 51.11301548 46.94550415 55.8607271 46.89428711 60.60864258 C46.85481845 64.10906384 46.80331171 67.60914113 46.75 71.109375 C46.74158585 72.18943314 46.73317169 73.26949127 46.72450256 74.38227844 C46.70786057 75.37479111 46.69121857 76.36730377 46.67407227 77.38989258 C46.6637648 78.2639827 46.65345734 79.13807281 46.64283752 80.03865051 C46.37109375 82.15234375 46.37109375 82.15234375 44.37109375 84.15234375 C42.21630859 84.37939453 42.21630859 84.37939453 39.58203125 84.34765625 C38.64101563 84.34121094 37.7 84.33476563 36.73046875 84.328125 C35.745625 84.31136719 34.76078125 84.29460937 33.74609375 84.27734375 C32.75351562 84.26832031 31.7609375 84.25929688 30.73828125 84.25 C28.28231241 84.22638491 25.82682207 84.19345174 23.37109375 84.15234375 C18.71834154 73.26944587 14.55791735 62.22258921 10.37109375 51.15234375 C9.71109375 62.04234375 9.05109375 72.93234375 8.37109375 84.15234375 C0.78109375 84.15234375 -6.80890625 84.15234375 -14.62890625 84.15234375 C-15.48531808 80.72669645 -15.70234846 78.78691635 -15.4987793 75.3815918 C-15.44509689 74.43507248 -15.39141449 73.48855316 -15.33610535 72.51335144 C-15.27159683 71.49058609 -15.20708832 70.46782074 -15.140625 69.4140625 C-15.07736526 68.34227249 -15.01410553 67.27048248 -14.94892883 66.16621399 C-14.8130274 63.88545455 -14.67412399 61.60487232 -14.5324707 59.32446289 C-14.3213243 55.91916046 -14.11974816 52.51340513 -13.91992188 49.10742188 C-13.26694489 38.16310506 -12.53345386 27.22501482 -11.6484375 16.296875 C-11.57638596 15.34487717 -11.50433441 14.39287933 -11.43009949 13.41203308 C-10.69746645 4.79447565 -10.69746645 4.79447565 -8.62890625 1.15234375 C-5.73624807 0.18812436 -3.02646891 0.1753823 0 0 Z " fill="#292B2A" transform="translate(446.62890625,458.84765625)"/>
<path d="M0 0 C3.9881929 4.97158293 5.34167611 9.90794504 6.75 16.0625 C6.99242432 17.09729492 7.23484863 18.13208984 7.48461914 19.19824219 C10.14394605 30.98034249 12.28757408 42.86655221 14.4375 54.75 C14.62284302 55.76119904 14.80818604 56.77239807 14.99914551 57.8142395 C15.52942331 60.72336474 16.04624024 63.63454559 16.55859375 66.546875 C16.71970139 67.42615158 16.88080902 68.30542816 17.04679871 69.21134949 C17.76958025 73.41532716 18.28991674 76.826583 17 81 C13.02084841 81.02886984 9.04172347 81.04675406 5.0625 81.0625 C3.35803711 81.07506836 3.35803711 81.07506836 1.61914062 81.08789062 C0.53955078 81.09111328 -0.54003906 81.09433594 -1.65234375 81.09765625 C-3.15269165 81.10551147 -3.15269165 81.10551147 -4.68334961 81.11352539 C-7 81 -7 81 -8 80 C-8.78757871 75.34926147 -9.36823221 70.67508167 -10 66 C-14.62 66.99 -19.24 67.98 -24 69 C-24.474375 70.794375 -24.94875 72.58875 -25.4375 74.4375 C-26.875 79.875 -26.875 79.875 -28 81 C-29.69558726 81.09932153 -31.39525747 81.13080007 -33.09375 81.1328125 C-34.12371094 81.13410156 -35.15367187 81.13539063 -36.21484375 81.13671875 C-37.84099609 81.13091797 -37.84099609 81.13091797 -39.5 81.125 C-40.58410156 81.12886719 -41.66820312 81.13273438 -42.78515625 81.13671875 C-43.81511719 81.13542969 -44.84507812 81.13414062 -45.90625 81.1328125 C-46.85822266 81.13168457 -47.81019531 81.13055664 -48.79101562 81.12939453 C-51 81 -51 81 -52 80 C-51.65531978 71.27767553 -48.87373161 63.18949409 -46.25 54.9375 C-46.01200684 54.181203 -45.77401367 53.42490601 -45.52880859 52.64569092 C-41.82917507 40.94194815 -37.64601517 29.48517856 -33 18.125 C-32.72128052 17.44218964 -32.44256104 16.75937927 -32.15539551 16.05587769 C-25.43519166 -0.3169871 -25.43519166 -0.3169871 -22.0546875 -1.92578125 C-6.67209601 -4.65495071 -6.67209601 -4.65495071 0 0 Z M-15 35 C-16.485 40.445 -16.485 40.445 -18 46 C-16.02 46 -14.04 46 -12 46 C-12.33 42.37 -12.66 38.74 -13 35 C-13.66 35 -14.32 35 -15 35 Z M4 64 C3.34 65.32 2.68 66.64 2 68 C3.32 68.33 4.64 68.66 6 69 C5.67 67.35 5.34 65.7 5 64 C4.67 64 4.34 64 4 64 Z " fill="#292B2A" transform="translate(348,462)"/>
<path d="M0 0 C9.81299468 8.13076702 10.8802409 22.2506076 13.01953125 34.1015625 C13.26236861 35.42109582 13.50567971 36.74054203 13.74943542 38.05990601 C14.25264206 40.79343707 14.75033597 43.52789492 15.24389648 46.26318359 C15.87670057 49.76766003 16.52346682 53.26939507 17.17421436 56.77057838 C17.79664106 60.12957972 18.40761386 63.49063054 19.01953125 66.8515625 C19.25275589 68.10772369 19.48598053 69.36388489 19.72627258 70.65811157 C19.93366562 71.8171701 20.14105865 72.97622864 20.35473633 74.17041016 C20.54030594 75.19043121 20.72587555 76.21045227 20.91706848 77.26138306 C21.1875 79.8125 21.1875 79.8125 20.1875 82.8125 C11.9375 82.8125 3.6875 82.8125 -4.8125 82.8125 C-5.8025 75.3875 -5.8025 75.3875 -6.8125 67.8125 C-9.41125 68.3075 -9.41125 68.3075 -12.0625 68.8125 C-15.45711639 69.4590936 -18.33273497 69.8125 -21.8125 69.8125 C-21.93625 71.029375 -22.06 72.24625 -22.1875 73.5 C-22.53414295 76.90865569 -23.50784274 79.65156723 -24.8125 82.8125 C-28.62498426 82.84137236 -32.4374407 82.85925492 -36.25 82.875 C-37.33861328 82.88337891 -38.42722656 82.89175781 -39.54882812 82.90039062 C-40.58330078 82.90361328 -41.61777344 82.90683594 -42.68359375 82.91015625 C-43.64193115 82.91539307 -44.60026855 82.92062988 -45.58764648 82.92602539 C-47.8125 82.8125 -47.8125 82.8125 -48.8125 81.8125 C-49.03919314 72.87648453 -45.80682534 64.21298786 -43.125 55.8125 C-42.88795349 55.06258789 -42.65090698 54.31267578 -42.40667725 53.54003906 C-38.56086999 41.43980845 -34.20433369 29.57876528 -29.4375 17.8125 C-29.1434024 17.07322266 -28.84930481 16.33394531 -28.54629517 15.57226562 C-27.70791862 13.47762813 -26.84682527 11.39406 -25.9765625 9.3125 C-25.48623535 8.1265625 -24.9959082 6.940625 -24.49072266 5.71875 C-22.6122769 2.4657651 -21.189896 1.3642225 -17.8125 -0.1875 C-12.08362181 -1.61971955 -5.51976285 -2.33056654 0 0 Z M-11.8125 35.8125 C-12.8025 39.7725 -13.7925 43.7325 -14.8125 47.8125 C-12.8325 47.8125 -10.8525 47.8125 -8.8125 47.8125 C-9.4725 43.8525 -10.1325 39.8925 -10.8125 35.8125 C-11.1425 35.8125 -11.4725 35.8125 -11.8125 35.8125 Z M7.1875 65.8125 C6.5275 67.1325 5.8675 68.4525 5.1875 69.8125 C6.1775 70.1425 7.1675 70.4725 8.1875 70.8125 C8.1875 69.1625 8.1875 67.5125 8.1875 65.8125 C7.8575 65.8125 7.5275 65.8125 7.1875 65.8125 Z " fill="#292B2A" transform="translate(653.8125,460.1875)"/>
<path d="M0 0 C9.81299468 8.13076702 10.8802409 22.2506076 13.01953125 34.1015625 C13.26236861 35.42109582 13.50567971 36.74054203 13.74943542 38.05990601 C14.25264206 40.79343707 14.75033597 43.52789492 15.24389648 46.26318359 C15.87670057 49.76766003 16.52346682 53.26939507 17.17421436 56.77057838 C17.79664106 60.12957972 18.40761386 63.49063054 19.01953125 66.8515625 C19.25275589 68.10772369 19.48598053 69.36388489 19.72627258 70.65811157 C19.93366562 71.8171701 20.14105865 72.97622864 20.35473633 74.17041016 C20.54030594 75.19043121 20.72587555 76.21045227 20.91706848 77.26138306 C21.1875 79.8125 21.1875 79.8125 20.1875 82.8125 C11.9375 82.8125 3.6875 82.8125 -4.8125 82.8125 C-5.8025 75.3875 -5.8025 75.3875 -6.8125 67.8125 C-9.41125 68.3075 -9.41125 68.3075 -12.0625 68.8125 C-15.45711639 69.4590936 -18.33273497 69.8125 -21.8125 69.8125 C-21.93625 71.029375 -22.06 72.24625 -22.1875 73.5 C-22.53414295 76.90865569 -23.50784274 79.65156723 -24.8125 82.8125 C-28.62498426 82.84137236 -32.4374407 82.85925492 -36.25 82.875 C-37.33861328 82.88337891 -38.42722656 82.89175781 -39.54882812 82.90039062 C-40.58330078 82.90361328 -41.61777344 82.90683594 -42.68359375 82.91015625 C-43.64193115 82.91539307 -44.60026855 82.92062988 -45.58764648 82.92602539 C-47.8125 82.8125 -47.8125 82.8125 -48.8125 81.8125 C-49.03919314 72.87648453 -45.80682534 64.21298786 -43.125 55.8125 C-42.88795349 55.06258789 -42.65090698 54.31267578 -42.40667725 53.54003906 C-38.56086999 41.43980845 -34.20433369 29.57876528 -29.4375 17.8125 C-29.1434024 17.07322266 -28.84930481 16.33394531 -28.54629517 15.57226562 C-27.70791862 13.47762813 -26.84682527 11.39406 -25.9765625 9.3125 C-25.48623535 8.1265625 -24.9959082 6.940625 -24.49072266 5.71875 C-22.6122769 2.4657651 -21.189896 1.3642225 -17.8125 -0.1875 C-12.08362181 -1.61971955 -5.51976285 -2.33056654 0 0 Z M-11.8125 35.8125 C-12.8025 39.7725 -13.7925 43.7325 -14.8125 47.8125 C-12.8325 47.8125 -10.8525 47.8125 -8.8125 47.8125 C-9.4725 43.8525 -10.1325 39.8925 -10.8125 35.8125 C-11.1425 35.8125 -11.4725 35.8125 -11.8125 35.8125 Z M7.1875 65.8125 C6.5275 67.1325 5.8675 68.4525 5.1875 69.8125 C6.1775 70.1425 7.1675 70.4725 8.1875 70.8125 C8.1875 69.1625 8.1875 67.5125 8.1875 65.8125 C7.8575 65.8125 7.5275 65.8125 7.1875 65.8125 Z " fill="#292B2A" transform="translate(545.8125,460.1875)"/>
<path d="M0 0 C6.4863419 6.4863419 9.05686059 14.11034726 9.3125 23.125 C9.22461761 31.26510654 6.81952837 38.4393188 1.42553711 44.61450195 C-6.51870848 52.3356175 -18.55740647 54.32524443 -29 56 C-29.33 63.59 -29.66 71.18 -30 79 C-37.26 79 -44.52 79 -52 79 C-52.20598929 63.43064264 -51.44737624 47.95770449 -50.60931396 32.41387939 C-50.4248867 28.97401743 -50.24590739 25.53387191 -50.06640625 22.09375 C-49.7158349 15.39556784 -49.36002913 8.69768011 -49 2 C-42.39304472 -0.27754605 -35.93895455 -1.99019153 -29.0625 -3.25 C-28.13759766 -3.435625 -27.21269531 -3.62125 -26.25976562 -3.8125 C-16.97753629 -5.52974495 -7.99201877 -5.60154887 0 0 Z M-27 17 C-28.32594359 22.96674616 -28.0884587 28.92583615 -28 35 C-21.89468635 33.84209569 -18.28235606 32.59569919 -14 28 C-12.5644782 24.03120442 -12.77543934 22.52722938 -14.4375 18.625 C-14.953125 17.75875 -15.46875 16.8925 -16 16 C-19.83225427 15.91087781 -23.26562152 16.12132271 -27 17 Z M-47 72 C-46 75 -46 75 -46 75 Z " fill="#292B2A" transform="translate(420,464)"/>
<path d="M0 0 C1.1127832 -0.00386719 1.1127832 -0.00386719 2.24804688 -0.0078125 C3.00794922 -0.00007813 3.76785156 0.00765625 4.55078125 0.015625 C5.70803711 0.00402344 5.70803711 0.00402344 6.88867188 -0.0078125 C12.60983033 0.01217408 12.60983033 0.01217408 14.86328125 2.265625 C15.76691003 10.35479383 14.58493323 18.83945418 14.06536865 26.94491577 C12.83017755 46.37446643 12.2841982 65.80375447 11.86328125 85.265625 C3.94328125 85.265625 -3.97671875 85.265625 -12.13671875 85.265625 C-12.89455762 81.47643064 -13.23652118 78.95317093 -13.09838867 75.22949219 C-13.06472702 74.24946228 -13.03106537 73.26943237 -12.99638367 72.25970459 C-12.95374893 71.20462708 -12.9111142 70.14954956 -12.8671875 69.0625 C-12.80559196 67.39746429 -12.80559196 67.39746429 -12.74275208 65.6987915 C-12.6539075 63.3383088 -12.56208742 60.97793651 -12.4675293 58.61767578 C-12.3275056 55.09823849 -12.19909445 51.57852809 -12.07226562 48.05859375 C-11.49525671 32.75513831 -10.49180203 17.51956795 -9.13671875 2.265625 C-5.9537018 0.94372976 -3.45976625 0.01159189 0 0 Z M-4.13671875 5.265625 C-3.13671875 8.265625 -3.13671875 8.265625 -3.13671875 8.265625 Z " fill="#292B2A" transform="translate(689.13671875,457.734375)"/>
<path d="M0 0 C9.57 0 19.14 0 29 0 C29 0.66 29 1.32 29 2 C23.25 5 23.25 5 21 5 C21.27617533 6.94074861 21.27617533 6.94074861 22 9 C22.99 9.66 23.98 10.32 25 11 C24.67 12.65 24.34 14.3 24 16 C22.359375 16.71875 22.359375 16.71875 20 17 C12.85051502 13.32312201 5.46745063 7.94987274 0 2 C0 1.34 0 0.68 0 0 Z " fill="#2A2C2B" transform="translate(402,605)"/>
<path d="M0 0 C0.66 0 1.32 0 2 0 C2 0.99 2 1.98 2 3 C1.34 3 0.68 3 0 3 C0 2.01 0 1.02 0 0 Z " fill="#272C27" transform="translate(128,573)"/>
<path d="M0 0 C0.66 0 1.32 0 2 0 C2 0.66 2 1.32 2 2 C1.34 2 0.68 2 0 2 C0 1.34 0 0.68 0 0 Z " fill="#323232" transform="translate(205,406)"/>
</svg>
